<?xml version="1.0" standalone="no"?>
<!DOCTYPE svg PUBLIC "-//W3C//DTD SVG 1.1//EN" "http://www.w3.org/Graphics/SVG/1.1/DTD/svg11.dtd" >
<svg xmlns="http://www.w3.org/2000/svg">
<metadata></metadata>
<defs>
<font id="nexa_slabxbold" horiz-adv-x="1433" >
<font-face units-per-em="2048" ascent="1434" descent="-614" />
<missing-glyph horiz-adv-x="483" />
<glyph horiz-adv-x="2048" />
<glyph horiz-adv-x="2048" />
<glyph horiz-adv-x="682" />
<glyph unicode="&#xd;" horiz-adv-x="434" />
<glyph unicode=" "  horiz-adv-x="483" />
<glyph unicode="&#x09;" horiz-adv-x="483" />
<glyph unicode="&#xa0;" horiz-adv-x="483" />
<glyph unicode="!" horiz-adv-x="624" d="M154 141q0 75 47 117.5t112 42.5t113.5 -42.5t48.5 -117.5q0 -74 -47.5 -115.5t-112.5 -41.5t-113 41.5t-48 115.5zM178 1440h268l-6 -1039h-256z" />
<glyph unicode="&#x22;" horiz-adv-x="843" d="M135 885v545h213v-545h-213zM494 885v545h215v-545h-215z" />
<glyph unicode="#" horiz-adv-x="1415" d="M70 283v227h215l100 389h-170v223h221l76 312h248l-76 -312h264l78 312h248l-78 -312h147v-223h-204l-101 -389h164v-227h-215l-69 -283h-248l69 283h-268l-70 -283h-243l69 283h-157zM522 494h271l106 421h-268z" />
<glyph unicode="$" horiz-adv-x="1320" d="M94 156q0 5 0.5 52.5t0.5 96.5v98t-1 64h232l16 -195q58 -33 138 -54t151 -21q72 0 132.5 10t115 33.5t85.5 68.5t31 107q-1 33 -14.5 60.5t-34 47t-51.5 35.5t-62 26t-71.5 18t-73.5 12t-74 8q-78 8 -137.5 19t-121.5 31t-105.5 50t-79 73t-53 104.5t-17.5 139.5 q0 71 27 134.5t72 110t105.5 83t125.5 58.5t133 32v197h236v-193q96 -11 182.5 -48.5t183.5 -113.5q0 -58 -1 -148t-1 -148h-223l-14 188q-119 57 -254 53q-125 -2 -221.5 -57t-96.5 -146q0 -89 69.5 -127.5t225.5 -60.5q75 -10 131 -20t122.5 -27.5t114 -39t94.5 -54.5 t76.5 -74t47.5 -97.5t18 -125.5q-1 -104 -38 -185t-103 -132t-143.5 -81t-171.5 -43v-194h-232v184q-143 6 -249 48t-222 143z" />
<glyph unicode="%" horiz-adv-x="1615" d="M66 1130q0 60 21.5 116t61.5 102t104.5 74t143.5 28q158 0 245 -89.5t87 -227.5q0 -61 -21 -118t-61 -103t-104.5 -73.5t-145.5 -27.5q-155 0 -243 95.5t-88 223.5zM195 0l929 1438h269l-928 -1438h-270zM260 1135q-2 -55 35.5 -95.5t103.5 -40.5q64 0 98.5 40.5 t34.5 97.5q-2 56 -37.5 91.5t-101.5 35.5q-62 0 -96.5 -37.5t-36.5 -91.5zM887 299q0 130 88 223.5t244 93.5q81 0 146 -27t104.5 -71.5t60 -100t20.5 -116.5q0 -62 -19 -118t-57.5 -102t-104 -73.5t-150.5 -27.5q-155 0 -243.5 95.5t-88.5 223.5zM1081 301q0 -56 37 -95.5 t103 -39.5q64 0 98.5 39t34.5 96q-2 56 -38 92.5t-102 36.5q-62 0 -96.5 -38.5t-36.5 -90.5z" />
<glyph unicode="&#x26;" horiz-adv-x="1449" d="M98 420q0 100 61 191.5t167 123.5q-92 29 -144.5 114.5t-52.5 178.5q0 87 31 159.5t83.5 122t122.5 84t146 50.5t156 16q79 0 150.5 -11.5t140.5 -40.5t119 -73.5t80.5 -114.5t31.5 -159h-250q-6 100 -74 143t-204 43q-78 0 -136.5 -19.5t-90 -51.5t-46.5 -68t-14 -74 q0 -44 20.5 -78.5t51 -55t71.5 -34t77 -18t71 -4.5h665v-209h-123v-186q0 -102 35.5 -156.5t126.5 -54.5v-242q-44 -11 -92 -7t-90 18t-76 52t-49 95q-73 -94 -178 -136.5t-221 -42.5q-122 0 -222 25t-178.5 76.5t-122 139t-43.5 204.5zM350 434q0 -225 307 -225 q32 0 71 7.5t83 26t79.5 45t59 69.5t23.5 94v186h-326q-75 0 -134.5 -19t-93.5 -49t-51.5 -65t-17.5 -70z" />
<glyph unicode="'" horiz-adv-x="485" d="M133 885v549h219v-549h-219z" />
<glyph unicode="(" horiz-adv-x="722" d="M78 588q0 174 52 341.5t162 319t265 256.5l119 -162q-167 -135 -257.5 -338.5t-90.5 -410.5q-2 -231 86.5 -423t263.5 -329l-129 -176q-230 151 -350.5 399.5t-120.5 522.5z" />
<glyph unicode=")" horiz-adv-x="722" d="M45 1350l119 161q233 -154 357 -395t124 -506q0 -178 -50.5 -349.5t-159.5 -328t-263 -258.5l-125 172q174 136 261 329t87 425q-2 210 -92 413.5t-258 336.5z" />
<glyph unicode="*" horiz-adv-x="808" d="M82 1163l51 180l189 -69l-11 190h185l-17 -194l195 71l51 -178l-193 -39l142 -159l-148 -109l-125 174l-116 -174l-150 109l133 159z" />
<glyph unicode="+" horiz-adv-x="1011" d="M80 600v219h305v307h233v-307h314v-219h-314v-313h-233v313h-305z" />
<glyph unicode="," horiz-adv-x="497" d="M102 119q-2 89 72 127t147 1.5t68 -128.5q0 -110 -92 -301h-145l45 190q-39 9 -66.5 36.5t-28.5 74.5z" />
<glyph unicode="-" horiz-adv-x="1001" d="M125 473v225h752v-225h-752z" />
<glyph unicode="." horiz-adv-x="501" d="M104 119q0 68 44 106.5t104 36.5q59 0 103 -39t44 -108q0 -67 -44.5 -105.5t-102.5 -38.5q-60 0 -104 39.5t-44 108.5z" />
<glyph unicode="/" horiz-adv-x="1015" d="M41 -168l690 1735h244l-690 -1735h-244z" />
<glyph unicode="0" d="M104 604v223q0 151 52 274t139.5 200t197 118t228.5 41q127 0 236.5 -40.5t192.5 -118t130 -199.5t47 -275v-223q0 -154 -47 -275t-130.5 -197.5t-193.5 -116.5t-241 -40q-179 0 -315 69t-216 212.5t-80 347.5zM356 604q0 -189 98.5 -291t258.5 -102t261 102.5t101 294.5 v223q0 192 -93 293t-261 101q-160 0 -262.5 -104t-102.5 -294v-223z" />
<glyph unicode="1" d="M180 0v217h434v916l-391 -101v234l645 188v-1237h443v-217h-1131z" />
<glyph unicode="2" d="M135 0v340q0 95 33.5 171t88.5 126t132.5 84.5t158.5 51t173 22.5q37 2 72.5 8t78.5 21t75 37t53.5 59t21.5 84q0 113 -76 170t-207 57q-313 0 -317 -209h-252q7 98 39.5 173.5t82.5 124t121.5 79t150.5 43t175 12.5q104 0 196 -25t168.5 -76.5t121.5 -140t45 -204.5 q0 -98 -25.5 -171t-69.5 -120.5t-115 -78t-150 -45.5t-187 -22q-68 -5 -125 -19.5t-105.5 -41t-76 -70t-27.5 -100.5v-109h631l12 199h240v-430h-1137z" />
<glyph unicode="3" d="M135 410h264q3 -51 23.5 -88.5t49.5 -58.5t71.5 -33.5t81 -16.5t86.5 -4q157 0 239 71.5t82 180.5q0 304 -481 244l-33 57q24 31 173 218.5t179 227.5h-442l-8 -196h-232l2 422h1072v-99l-388 -440q192 -12 300.5 -124.5t111.5 -313.5q0 -147 -77.5 -256.5t-205.5 -164 t-286 -54.5q-87 0 -160.5 9t-152 37t-134 73.5t-93 124.5t-42.5 184z" />
<glyph unicode="4" d="M61 455l752 979h320v-924h200v-231h-200v-279h-252v279h-803zM377 510h504v643z" />
<glyph unicode="5" d="M162 428h264q0 -59 26.5 -102.5t71.5 -66.5t95 -33.5t106 -10.5q57 0 112 15t103 43.5t77.5 78t29.5 111.5q0 78 -49 131t-120 74.5t-157 21.5h-537v744h1012v-234h-770v-278h295q120 0 220 -24.5t181.5 -76t127.5 -142.5t46 -214q0 -115 -47.5 -208t-127.5 -151 t-181 -89t-213 -31q-129 0 -228 23t-176.5 73t-118.5 137.5t-42 208.5z" />
<glyph unicode="6" d="M139 451v544q0 114 50 204.5t133.5 145.5t186.5 84t216 29q100 0 185 -15t157.5 -47t123 -80.5t79 -118.5t28.5 -157h-251q1 100 -89.5 152.5t-228.5 52.5q-91 0 -167.5 -27.5t-126.5 -87.5t-50 -141v-209q132 135 354 135q90 0 172 -15t159 -50.5t133 -88t90 -134.5 t34 -183q0 -114 -51.5 -206.5t-136.5 -149.5t-188.5 -87t-213.5 -30q-128 0 -235.5 30t-189 88t-127.5 151t-46 211zM391 442q1 -80 51 -136t126.5 -81.5t168.5 -25.5q67 2 126.5 17t108 44t77 76.5t28.5 107.5q0 123 -94.5 186.5t-241.5 63.5q-94 0 -172 -27t-128.5 -85.5 t-49.5 -139.5z" />
<glyph unicode="7" d="M190 1006v428h1102l15 -142l-703 -1292h-282l667 1204h-565l-8 -198h-226z" />
<glyph unicode="8" d="M100 428q0 55 23.5 115t76 116t124.5 82q-187 93 -187 293q0 85 30.5 156t84.5 120t127 83.5t158 50.5t178 16q116 0 219 -26t185.5 -76t131 -132.5t49.5 -187.5q0 -86 -51 -170t-143 -120q104 -39 163.5 -132t61.5 -190q4 -226 -161 -341.5t-445 -115.5 q-134 0 -246.5 27.5t-198.5 82.5t-133.5 144t-46.5 205zM352 422q0 -107 97.5 -166t261.5 -59q167 0 268 57.5t100 167.5q0 60 -31.5 105t-85 70t-115.5 36.5t-132 11.5q-92 3 -173 -20.5t-135.5 -76.5t-54.5 -126zM391 1040q1 -69 49.5 -116.5t118.5 -67.5t156 -20 t158 21.5t121 69t50 113.5q3 100 -92.5 152.5t-240.5 52.5q-147 0 -236 -59.5t-84 -145.5z" />
<glyph unicode="9" d="M109 993q0 92 33.5 170.5t91 133.5t133.5 93.5t160 57t171 18.5q90 0 175.5 -18.5t162.5 -57.5t134.5 -94t91.5 -135t34 -174v-545q0 -92 -33 -169t-88.5 -130t-131 -90.5t-159.5 -55t-173 -17.5q-94 0 -179 14.5t-161 47t-131.5 80t-87.5 118t-33 157.5h262 q1 -63 50 -109t121 -67.5t155 -21.5q87 0 163.5 28t127.5 86.5t51 135.5v219q-97 -146 -353 -146q-90 0 -171.5 15t-158.5 50.5t-133 88.5t-90 134t-34 183zM365 993q0 -119 94.5 -184.5t236.5 -65.5q147 0 248 66t100 186q-1 118 -101.5 183t-244.5 65q-88 -2 -161.5 -29 t-122.5 -84.5t-49 -136.5z" />
<glyph unicode=":" horiz-adv-x="530" d="M125 125q0 65 41.5 102t99.5 37q57 0 98.5 -37t41.5 -102t-41.5 -102t-98.5 -37q-58 0 -99.5 37t-41.5 102zM125 721q0 67 41.5 104t99.5 37q57 0 98.5 -37t41.5 -104q0 -65 -41.5 -102t-98.5 -37q-58 0 -99.5 37t-41.5 102z" />
<glyph unicode=";" horiz-adv-x="546" d="M127 119q-2 89 72 127t147 1.5t68 -128.5q0 -110 -92 -301h-146l45 190q-38 9 -65.5 36.5t-28.5 74.5zM135 719q0 65 41.5 102t99.5 37q57 0 98.5 -36t41.5 -101t-41.5 -102t-98.5 -37q-58 0 -99.5 36t-41.5 101z" />
<glyph unicode="&#x3c;" horiz-adv-x="790" d="M66 627v35l464 460l154 -164l-326 -315l330 -311l-158 -164z" />
<glyph unicode="=" horiz-adv-x="1093" d="M133 358v215h828v-215h-828zM133 762v215h828v-215h-828z" />
<glyph unicode="&#x3e;" horiz-adv-x="790" d="M102 319l330 324l-330 326l154 153l469 -460v-35l-469 -459z" />
<glyph unicode="?" horiz-adv-x="1243" d="M63 1008q1 110 48.5 197.5t127.5 141.5t179.5 82.5t208.5 28.5q88 0 167.5 -15t151 -49.5t123.5 -85.5t81.5 -127.5t27.5 -170.5q-4 -71 -23 -125.5t-45.5 -87t-65.5 -60.5t-73.5 -43.5t-79.5 -38t-74 -43.5q-30 -21 -44 -33.5t-33 -36.5t-26.5 -57t-8.5 -79h-256 q-1 53 5.5 97t15 75.5t28 61t33 46t42.5 37.5t44 30t49 29q16 9 60 31t71 38t60.5 41.5t50 56.5t16.5 67q0 53 -19.5 92t-48 60t-72 33.5t-80.5 16t-83 3.5q-83 0 -153 -23.5t-115 -73t-46 -116.5h-244zM420 150q0 72 46 113.5t109 41.5q64 0 111 -41t47 -114t-46 -115.5 t-109 -42.5q-64 0 -111 42t-47 116z" />
<glyph unicode="@" horiz-adv-x="1888" d="M86 508q0 155 46.5 288.5t127.5 230.5t189.5 166.5t234.5 103.5t260 34q391 0 616.5 -209.5t225.5 -582.5q0 -73 -10.5 -144.5t-36.5 -143.5t-64.5 -126.5t-99 -88.5t-135.5 -34q-84 0 -130.5 37t-49.5 129q-45 -81 -143.5 -122.5t-184.5 -41.5q-245 0 -383.5 134 t-138.5 368q0 159 70.5 276.5t188 175.5t265.5 58q90 0 175.5 -42t119.5 -110l14 97l184 -21v-733q44 -28 78 3.5t51 97.5t25 127t8 108q0 313 -161.5 456.5t-483.5 143.5q-97 0 -190 -27t-174.5 -81t-143.5 -129t-97.5 -178t-35.5 -220q0 -125 33.5 -227t91.5 -172 t138.5 -117.5t172.5 -69.5t195 -22q135 0 289 71l94 -166q-170 -102 -389 -102q-138 0 -261 30t-230 94t-184.5 157.5t-122 227.5t-44.5 296zM633 506q0 -136 76.5 -214.5t222.5 -78.5q142 0 219.5 87t77.5 218q0 125 -75 209t-216 84q-146 0 -225.5 -86t-79.5 -219z" />
<glyph unicode="A" horiz-adv-x="1658" d="M23 0v231h127l452 973h-143v230h528l526 -1203h127v-231h-559v231h166q-18 36 -42 96.5t-29 71.5h-682q-4 -9 -32 -69t-44 -99h160v-231h-555zM592 625h483q-1 3 -81 202.5t-148 356.5q-51 -113 -136 -299t-118 -260z" />
<glyph unicode="B" horiz-adv-x="1523" d="M109 0v231h163v973h-159v230h780q107 0 193 -23t153 -71t104 -129t37 -189q0 -188 -184 -285q74 -19 129 -79t77.5 -123t22.5 -117q0 -101 -29 -176t-76.5 -120.5t-118.5 -73.5t-144 -38t-164 -10h-784zM520 231h373q47 0 89.5 7.5t87 27t71 60.5t26.5 103q0 61 -44 108 q-45 48 -106.5 69t-123.5 21h-373v-396zM520 854h373q117 0 178.5 51t61.5 111q0 100 -60.5 145t-179.5 45h-373v-352z" />
<glyph unicode="C" horiz-adv-x="1423" d="M86 707v15q0 106 26 206q28 108 89 205t149.5 169.5t216 115t279.5 42.5q278 0 463 -137q0 -134 -4 -338h-226l-12 197q-84 37 -221 37q-129 0 -228.5 -40t-159.5 -110.5t-90 -160.5q-30 -88 -30 -190v-7q3 -78 19 -146.5t54 -134.5t94 -113t143.5 -75.5t197.5 -28.5 q94 0 193.5 39.5t166.5 107.5l180 -174q-223 -213 -540 -213q-155 0 -282 39.5t-214 108t-147 162t-88 200t-29 224.5z" />
<glyph unicode="D" horiz-adv-x="1595" d="M109 0v231h161v977h-159v230h669q179 0 318 -52t227.5 -146.5t134 -223.5t45.5 -287q-1 -119 -28 -225.5t-84.5 -199t-141 -160t-204 -106t-267.5 -38.5h-671zM528 231h252q97 0 177 29.5t133 78.5t90 115t54 135.5t19 143.5q0 94 -30 178t-87 150.5t-149 105.5t-207 39 h-252v-975z" />
<glyph unicode="E" horiz-adv-x="1423" d="M111 0v231h161v973h-157v230h1181v-443h-223l-10 211h-541v-362h531v-230h-531v-372h572l10 215h223v-453h-1216z" />
<glyph unicode="F" horiz-adv-x="1294" d="M109 0v231h163v973h-163v230h1126v-443h-223l-11 219h-475v-354h475v-235h-475v-390h193v-231h-610z" />
<glyph unicode="G" horiz-adv-x="1488" d="M90 700v8q0 118 29 226q30 112 92 208t150 166.5t211 111t268 40.5q297 0 508 -164q0 -120 -7 -311h-225l-8 193q-55 22 -131.5 35.5t-136.5 13.5q-99 0 -182 -27.5t-141 -76.5t-98 -116t-59 -144.5t-20 -164.5q0 -76 15.5 -145t53 -133t94.5 -110.5t144.5 -74.5 t198.5 -28q99 0 168.5 23t136.5 83v269h-408v213h633v-576q-184 -250 -532 -250q-161 0 -290 39.5t-214.5 107t-142.5 162t-82 199t-25 223.5z" />
<glyph unicode="H" horiz-adv-x="1736" d="M106 1202v232h572v-232h-156v-346h690v346h-155v232h571v-232h-164v-971h160v-231h-565v231h153v400h-690v-400h152v-231h-565v231h163v971h-166z" />
<glyph unicode="I" horiz-adv-x="804" d="M106 0v231h173v971h-166v232h587v-232h-170v-971h172v-231h-596z" />
<glyph unicode="J" horiz-adv-x="1404" d="M41 592h260q0 -196 70 -288.5t247 -92.5q181 0 268 104t87 293v594h-408v232h662v-826v-27q0 -271 -155 -435q-163 -173 -454 -173q-280 0 -428.5 149t-148.5 470z" />
<glyph unicode="K" horiz-adv-x="1509" d="M106 1202v232h553v-232h-137v-469l490 469h-140v232h568v-232h-113l-440 -418l409 -555h160v-229h-455v209l-288 412l-191 -183v-209h183v-229h-596v229h163v973h-166z" />
<glyph unicode="L" horiz-adv-x="1333" d="M109 1202v232h575v-232h-156v-971h514l11 213h225v-444h-1153v229h149v973h-165z" />
<glyph unicode="M" horiz-adv-x="2056" d="M104 0v229h172v973h-172v232h469l461 -635l457 635h459v-232h-164v-973h162v-229h-570v229h158v842l-483 -610h-52l-473 620v-852h152v-229h-576z" />
<glyph unicode="N" horiz-adv-x="1769" d="M104 1202v232h355l809 -979v747h-170v232h575v-232h-155v-1202h-170l-824 977v-748h168v-229h-573v229h153v973h-168z" />
<glyph unicode="O" horiz-adv-x="1638" d="M86 707q0 171 57.5 314t157.5 239t236.5 149t293.5 53q142 -1 262 -42.5t204 -112.5t143 -167q58 -96 86 -204q27 -105 26 -217v-8q-1 -114 -28 -221t-86 -203t-143 -167t-206 -113t-268 -42t-268.5 41t-207.5 112t-144.5 166t-87 202t-27.5 221zM338 709 q0 -101 28.5 -189t86 -160t153 -113.5t219.5 -41.5q99 0 180 29.5t134.5 78.5t90 115.5t52.5 137t16 145.5v9q0 73 -14 141q-16 72 -52 138.5t-89 116t-133.5 79.5t-178.5 32q-154 0 -266.5 -67.5t-169 -183.5t-57.5 -267z" />
<glyph unicode="P" horiz-adv-x="1488" d="M104 1202v232h818q126 0 227 -41t163 -109q61 -68 94 -154q32 -84 32 -170v-6q-1 -90 -35 -176t-96.5 -153.5t-162 -108.5t-222.5 -41h-400v-248h168v-227h-573v227h155v975h-168zM522 698h400q65 0 117.5 21.5t85 57t50 81t17.5 92.5t-17.5 92.5t-50 81t-85 57 t-117.5 21.5h-400v-504z" />
<glyph unicode="Q" horiz-adv-x="1638" d="M86 707q0 171 57.5 314t157.5 239t236.5 149t293.5 53q142 -1 262 -42.5t204 -112.5t142.5 -166.5t86.5 -204.5q26 -104 26 -217v-8q-3 -255 -129 -447l166 -164l-180 -178l-160 164q-177 -121 -428 -121q-146 0 -268.5 41t-207.5 112t-144.5 166t-87 202t-27.5 221z M338 709q0 -101 28.5 -189t86 -160t153 -113.5t219.5 -41.5q99 0 180 29.5t134.5 78.5t90 115.5t52.5 137t16 145.5v9q0 73 -14 141q-16 72 -52 138.5t-89 116t-133.5 79.5t-178.5 32q-154 0 -266.5 -67.5t-169 -183.5t-57.5 -267z" />
<glyph unicode="R" horiz-adv-x="1552" d="M106 1204v230h805q82 0 153 -12.5t138 -44t114 -79.5t75.5 -124t29.5 -173q-1 -201 -96.5 -308.5t-290.5 -141.5l264 -320h172v-231h-454v207l-258 332h-230v-308h185v-231h-600v231h159v973h-166zM528 754h381q131 0 193 66t65 171q0 60 -22 103t-60.5 66t-81 33.5 t-92.5 10.5h-383v-450z" />
<glyph unicode="S" horiz-adv-x="1335" d="M104 156v311h232l16 -195q58 -33 138 -54t151 -21q72 0 133 10t115.5 33.5t85.5 68.5t31 107q-1 33 -14.5 60.5t-34 47t-51.5 35.5t-62 26t-71.5 18t-73.5 12t-74 8q-78 8 -137.5 19t-121.5 31t-105.5 50t-79 73t-53 104.5t-17.5 139.5q0 102 53.5 186t137.5 134.5 t180.5 78t189.5 27.5h24q138 0 242 -32q113 -34 238 -134q0 -58 -1 -148t-1 -148h-224l-14 188q-111 53 -236 53h-18q-125 -2 -221 -57t-96 -146q0 -89 69 -127.5t225 -60.5q75 -10 131 -20t122.5 -27.5t114.5 -39t95 -54.5t76.5 -74t47.5 -97.5t18 -125.5q-1 -103 -39 -184 t-99 -130.5t-145 -81.5t-167.5 -44.5t-176.5 -12.5q-171 0 -288.5 41t-244.5 152z" />
<glyph unicode="T" horiz-adv-x="1357" d="M61 997v437h1235v-437h-221l-14 213h-258v-979h172v-231h-596v231h176v979h-260l-10 -213h-224z" />
<glyph unicode="U" horiz-adv-x="1724" d="M88 1202v232h584v-232h-183v-600q0 -198 97.5 -301.5t277.5 -103.5q170 0 273.5 108.5t103.5 298.5v598h-182v232h583v-232h-153v-600q0 -132 -33.5 -239.5t-91.5 -181.5t-137.5 -124t-170.5 -73t-192 -23q-129 0 -239 37t-198 111.5t-138.5 200.5t-50.5 292v600h-150z " />
<glyph unicode="V" horiz-adv-x="1624" d="M27 1202v232h585v-232h-159l358 -903l360 903h-155v232h588v-232h-154l-502 -1206h-272l-502 1206h-147z" />
<glyph unicode="W" horiz-adv-x="2322" d="M29 1202v232h575v-232h-151l270 -842l358 1026h168l365 -1026l260 842h-152v232h576v-232h-139l-424 -1202h-240l-334 864l-323 -864h-256l-414 1202h-139z" />
<glyph unicode="X" horiz-adv-x="1515" d="M43 0v227h145l406 518l-361 457h-157v232h452v-217l248 -316l234 303l-162 2v228h596v-232h-146l-372 -487l385 -488h159v-227h-454v209l-277 352l-262 -334l166 -4v-223h-600z" />
<glyph unicode="Y" horiz-adv-x="1462" d="M41 1202v232h590v-232h-152l254 -403l256 403h-147v232h588v-232h-136l-436 -641v-334h172v-227h-602v227h172v334l-426 641h-133z" />
<glyph unicode="Z" horiz-adv-x="1290" d="M72 0v137l735 1063h-438l-4 -201h-236v435h1053v-109l-752 -1085h514l6 235h238v-475h-1116z" />
<glyph unicode="[" horiz-adv-x="731" d="M176 -362v1814h483v-211h-243v-1391h243v-212h-483z" />
<glyph unicode="\" horiz-adv-x="1017" d="M41 1567h246l690 -1735h-248z" />
<glyph unicode="]" horiz-adv-x="733" d="M74 -147h241v1390h-241v211h483v-1814h-483v213z" />
<glyph unicode="^" horiz-adv-x="1277" d="M72 688v14l483 736h154l497 -736l-2 -14h-260l-311 479l-314 -479h-247z" />
<glyph unicode="_" horiz-adv-x="1216" d="M125 -10h967v-207h-967v207z" />
<glyph unicode="`" horiz-adv-x="483" d="M-10 1432h289l151 -275v-12h-215z" />
<glyph unicode="a" horiz-adv-x="1198" d="M70 295q0 106 47.5 179t122 105.5t172.5 41.5q44 4 87 4q53 0 104 -6q93 -11 185 -35v69q0 49 -20.5 84t-56.5 53.5t-77 28.5q-39 10 -85 10q-2 -1 -5 -1q-49 0 -88 -3t-77 -10l-10 -108h-213l-2 262q155 63 383 63q7 0 14 1q68 0 128 -10q66 -10 131 -36.5t111 -68.5 t74.5 -111t28.5 -158v-440h152v-209h-336l-31 104q-66 -62 -149 -94.5t-166 -32.5q-118 0 -212 33.5t-153 107t-59 177.5zM301 313q0 -64 59.5 -97.5t163.5 -33.5q106 0 183.5 61t89.5 154q-122 50 -261 50q-15 0 -30 -1q-97 -3 -151 -38t-54 -95z" />
<glyph unicode="b" horiz-adv-x="1376" d="M57 0v213h152v1012h-150v207h390v-558q31 65 134.5 112.5t196.5 47.5q113 0 206.5 -32t163.5 -95.5t109 -165.5t39 -235q0 -250 -142 -388q-140 -136 -369 -136h-7q-102 0 -192.5 36.5t-138.5 112.5l-19 -131h-373zM463 512q0 -76 27 -137t71.5 -97t96.5 -54.5t106 -18.5 q126 0 209.5 81.5t83.5 219.5q0 150 -84 229.5t-215 79.5q-50 0 -100.5 -18.5t-94.5 -54t-71.5 -95.5t-28.5 -135z" />
<glyph unicode="c" horiz-adv-x="1079" d="M76 508q0 109 31 199.5t83.5 150.5t123 101.5t146.5 60t158 18.5q204 0 369 -69l-10 -316h-209v164q-55 14 -116 14h-21q-139 -6 -226.5 -90t-87.5 -233q0 -82 29.5 -143.5t78 -94t101.5 -48t109 -15.5q159 0 239 92l154 -160q-156 -159 -395 -159q-117 0 -216.5 32 t-176 95.5t-120.5 166t-44 234.5z" />
<glyph unicode="d" horiz-adv-x="1366" d="M76 506q0 131 39.5 233t110 166t162 96.5t200.5 32.5q100 0 194 -38.5t144 -112.5v344h-148v205h387v-1219h150v-213h-352l-33 147q-123 -162 -342 -165q-224 0 -368 137.5t-144 386.5zM315 510q0 -141 84 -222t211 -81q50 0 102.5 19t99.5 54.5t76.5 94.5t29.5 131 q0 75 -26.5 136t-70 98.5t-95 57t-105.5 19.5q-132 0 -219 -78.5t-87 -228.5z" />
<glyph unicode="e" horiz-adv-x="1187" d="M74 514q0 229 150 377.5t388 148.5q258 0 397 -160q116 -134 116 -365q0 -47 -5 -97h-805q18 -101 101.5 -162t214.5 -61q75 0 154 28t122 74l154 -158q-76 -81 -194.5 -122.5t-241.5 -41.5q-258 0 -404.5 144t-146.5 395zM315 610h576q-15 104 -88.5 160.5t-184.5 56.5 q-106 0 -192 -57.5t-111 -159.5z" />
<glyph unicode="f" horiz-adv-x="774" d="M63 801v194h193v62q0 100 34 179.5t91.5 127.5t130.5 72q56 17 118 17q19 0 40 -1q83 -8 164 -43l-64 -197q-46 29 -96 31h-9q-45 0 -81 -19q-40 -20 -66 -64t-26 -103v-62h227v-194h-227v-596h178v-205h-578v205h164v596h-193z" />
<glyph unicode="g" horiz-adv-x="1380" d="M76 500q0 162 73.5 284.5t195.5 183.5q116 58 257 58h14q211 0 330 -158l10 148h369v-209h-143v-823q0 -112 -30.5 -201t-81 -146.5t-120 -96t-143.5 -54.5t-156 -16q-496 0 -516 403h230q7 -90 83 -136t203 -46q139 0 216 66.5t77 228.5v139q-109 -154 -336 -154 q-241 0 -386.5 140t-145.5 389zM324 500q0 -134 88.5 -224t218.5 -90q96 0 171 48.5t110.5 117.5t35.5 142q0 128 -86.5 219.5t-224.5 91.5q-81 0 -151 -33.5t-116 -105t-46 -166.5z" />
<glyph unicode="h" horiz-adv-x="1378" d="M55 0v205h154v1026h-143v207h380v-557q132 143 320 143q214 0 325 -126t111 -355v-338h152v-205h-496v205h109v332q0 143 -63 204q-60 58 -172 58h-11q-126 -3 -198 -90.5t-72 -214.5v-289h149v-205h-545z" />
<glyph unicode="i" horiz-adv-x="663" d="M80 0v211h143v598h-141v209h383v-807h135v-211h-520zM205 1298q0 66 42 105t99 39q60 0 103 -40t43 -106q0 -65 -42 -105q-40 -38 -95 -38h-5q-60 0 -102.5 40t-42.5 105z" />
<glyph unicode="j" horiz-adv-x="598" d="M-96 -442l80 190q69 -30 118 -30q119 0 119 180v905h-172v207h406v-1112q0 -110 -29 -193t-80 -130t-120 -65q-42 -12 -88 -12q-31 0 -64 6q-81 12 -170 54zM195 1309q0 66 42 104.5t101 38.5q60 0 101.5 -39.5t41.5 -105.5q0 -65 -41 -105q-40 -39 -95 -39h-5 q-59 0 -102 40.5t-43 105.5z" />
<glyph unicode="k" horiz-adv-x="1226" d="M55 0v211h146v1010h-144v213h379v-846l291 231l-125 6v189h541v-195h-107l-297 -244l277 -364h162v-211h-392v127l-225 317l-125 -94v-139h121v-211h-502z" />
<glyph unicode="l" horiz-adv-x="651" d="M59 0v211h154v1014h-145v209h383v-1223h137v-211h-529z" />
<glyph unicode="m" horiz-adv-x="2000" d="M78 0v213h153v590h-147v211h373l18 -121q42 70 122.5 105.5t172.5 35.5q100 0 172 -50t102 -146q58 98 155 145t204 47q114 0 194 -32t126.5 -95.5t67.5 -149t21 -200.5v-340h152v-213h-528v213h141v340q0 58 -8.5 100t-30 77.5t-63 54t-101.5 18.5q-99 0 -161 -74 t-62 -176v-340h147v-213h-532v213h147v340q0 114 -51.5 183t-163.5 69h-10q-96 -1 -154 -71q-62 -74 -61 -181v-340h150v-213h-545z" />
<glyph unicode="n" horiz-adv-x="1390" d="M78 0v213h160v594h-152v209h363l16 -127q66 72 140 106.5t173 34.5q218 -5 324 -126t106 -367v-324h158v-213h-522v213h127v322q0 143 -51.5 207.5t-182.5 64.5q-114 0 -189 -76t-75 -217v-301h152v-213h-547z" />
<glyph unicode="o" horiz-adv-x="1214" d="M74 504q0 231 147.5 382.5t386.5 151.5q249 0 391 -149t142 -385q0 -147 -63.5 -266t-186.5 -190t-285 -71q-247 0 -389.5 146.5t-142.5 380.5zM313 504q0 -131 74.5 -217t218.5 -86q145 0 220.5 86t78.5 217q0 137 -82.5 227t-212.5 90q-137 0 -217 -88.5t-80 -228.5z " />
<glyph unicode="p" horiz-adv-x="1370" d="M53 807v209h377l5 -84l5 -86q144 182 353 182q232 -8 366.5 -143t134.5 -379q0 -246 -139.5 -389.5t-376.5 -143.5q-219 0 -346 160v-387h158v-215h-516v215h129v1061h-150zM469 500q0 -135 86.5 -221t202.5 -91q130 0 213.5 85t83.5 225q0 148 -76.5 223.5t-212.5 75.5 q-75 0 -142 -35.5t-111 -105t-44 -156.5z" />
<glyph unicode="q" horiz-adv-x="1308" d="M76 510q0 232 136.5 374.5t365.5 145.5q227 -3 350 -178l10 164h227v-1274h125v-213h-508v213h154v389q-62 -82 -153.5 -121t-188.5 -39q-242 0 -380 146.5t-138 392.5zM317 502q0 -143 78.5 -221t227.5 -78q113 0 199.5 86.5t86.5 220.5q0 87 -44.5 157t-111.5 106 t-141 36q-135 0 -215 -85t-80 -222z" />
<glyph unicode="r" horiz-adv-x="1030" d="M74 0v207h162v600h-146v209h342l29 -109q67 77 139.5 106t157.5 29q142 0 268 -94l-111 -205q-91 64 -196 64t-175.5 -70t-70.5 -200v-330h145v-207h-544z" />
<glyph unicode="s" horiz-adv-x="1050" d="M84 94l8 279h205l10 -137q113 -52 230 -52q26 0 49 2t53.5 8.5t52 18.5t36.5 33.5t15 50.5q0 108 -229 121q-74 10 -128.5 21.5t-112.5 34t-94 53.5t-59.5 80.5t-23.5 113.5q1 84 38.5 148.5t101.5 103.5t143 58.5t168 19.5q201 0 379 -88l-4 -277h-199l-12 139 q-20 12 -84.5 19.5t-100.5 7.5h-10q-90 0 -140 -33t-50 -91v-7q3 -49 61 -72.5t137 -27.5q54 -5 88.5 -10t87 -16t86.5 -25t73 -39.5t62 -57.5t38.5 -79t15.5 -105q0 -148 -122 -234t-321 -86q-126 0 -232.5 29t-215.5 96z" />
<glyph unicode="t" horiz-adv-x="802" d="M20 805v203h191v262l240 26v-288h282v-203h-287v-453q0 -74 35.5 -112.5t98.5 -38.5q61 0 114 26l64 -198q-93 -38 -191 -43h-19q-152 0 -242 90q-94 96 -95 276v453h-191z" />
<glyph unicode="u" horiz-adv-x="1392" d="M33 811v205h379v-535q0 -132 58 -201t189 -69q128 0 205.5 74.5t77.5 187.5v338h-160v205h398v-801h153v-215h-336l-39 127q-80 -77 -158.5 -107t-172.5 -32q-230 0 -341.5 132t-111.5 361v330h-141z" />
<glyph unicode="v" horiz-adv-x="1339" d="M29 809v207h520v-207h-123l248 -569l235 569h-123v207h525v-207h-144l-368 -819h-260l-365 819h-145z" />
<glyph unicode="w" horiz-adv-x="1861" d="M35 809v207h524v-207h-129l170 -576l234 760h202l228 -760l168 576h-132v207h531v-207h-139l-279 -815h-280l-105 282l-96 357l-105 -365l-98 -274h-283l-274 815h-137z" />
<glyph unicode="x" horiz-adv-x="1185" d="M63 0v209h109l262 321l-231 281h-123v205h385v-174l156 -199l131 170h-123v203h483v-203h-108l-256 -324l233 -278h139v-211h-401v180l-156 193l-135 -164h117v-209h-482z" />
<glyph unicode="y" horiz-adv-x="1312" d="M23 807v209h391v-535q0 -273 264 -276q119 3 185.5 81.5t66.5 207.5v313h-158v209h397v-1020q0 -86 -15 -158t-40.5 -124t-63 -92.5t-79.5 -66t-92.5 -42t-99.5 -23t-103 -6.5q-453 0 -481 401h231q5 -51 30 -87t62.5 -54t75.5 -25.5t80 -7.5q43 0 78.5 6t72 25 t61.5 49.5t40.5 83t15.5 123.5v133q-70 -81 -143.5 -112t-180.5 -31q-222 0 -332 128.5t-110 364.5v326h-153z" />
<glyph unicode="z" horiz-adv-x="1052" d="M76 0v94l510 705h-267l-4 -117h-215v334h820v-142l-478 -649h303l13 164h213l-6 -389h-889z" />
<glyph unicode="{" horiz-adv-x="714" d="M68 489v181q46 0 76.5 15.5t44.5 44t19 55t5 61.5v252q0 66 8.5 118t28.5 97.5t52.5 74.5t80 48.5t111.5 19.5t147 -12v-172q-38 7 -66.5 7t-48.5 -4.5t-33.5 -17.5t-21.5 -27t-12 -39t-5 -47t-1 -57v-241v-9q0 -30 -0.5 -44.5t-2 -39.5t-5.5 -39t-10.5 -34t-17.5 -32 t-26.5 -25.5t-37 -23.5t-48.5 -17q44 -11 73.5 -32t44.5 -41t22.5 -56t8.5 -58.5t1 -66.5v-4.5v-4v-4.5v-272q0 -30 0.5 -45t2 -37t5 -32t10 -24.5t16 -20.5t23.5 -13t33 -8.5t43.5 -2t56.5 2.5l-4 -180q-74 -12 -132.5 -9t-103.5 12.5t-78 33t-54.5 52t-35 69.5t-19 86 t-5.5 102v284q0 35 -5 61.5t-19 55t-44.5 44t-76.5 15.5z" />
<glyph unicode="|" horiz-adv-x="591" d="M178 -180v1700h236v-1700h-236z" />
<glyph unicode="}" horiz-adv-x="712" d="M72 -158q32 -3 56.5 -3.5t44 0.5t33.5 8t24 12.5t16.5 20t10 24.5t5 32t2 37t0.5 45v275v13q0 38 0.5 57t4.5 50t13 49t24.5 39.5t41.5 35.5t62 24q-37 10 -63.5 24.5t-42.5 36t-25.5 39t-13 49.5t-4.5 51.5t-1 58.5v9v238q0 35 -1 57t-5 46.5t-12 38t-21.5 26.5 t-33.5 17t-48.5 4t-66.5 -7v178q83 11 147 10t111.5 -21t80 -49t52.5 -74.5t28.5 -97.5t8.5 -118v-248q0 -35 5 -62t19 -55t44.5 -43.5t76.5 -15.5v-176q-46 0 -76.5 -16t-44.5 -44.5t-19 -55.5t-5 -62v-285q0 -56 -5.5 -101t-19 -86.5t-35 -70t-54.5 -53t-78 -34 t-103.5 -13.5t-132.5 8v178z" />
<glyph unicode="~" horiz-adv-x="1247" d="M111 549q24 105 88.5 172t147.5 79t177 -26l252 -119q60 -34 117 -2t72 113l172 -61q-33 -156 -152 -228t-262 -8l-254 121q-144 66 -197 -107z" />
<glyph unicode="&#xa1;" horiz-adv-x="587" d="M131 831q0 75 47.5 116.5t112.5 41.5t112.5 -42.5t47.5 -117.5t-47.5 -117t-112.5 -42t-112.5 42t-47.5 119zM166 -459v1039h258v-1039h-258z" />
<glyph unicode="&#xa2;" d="M254 479q0 199 119 337.5t313 182.5v144h223v-144q157 -30 277 -153l-148 -152q-100 97 -235 97q-130 0 -223 -84t-93 -226q0 -143 93 -227t223 -84q68 0 118 25t109 84l150 -177q-116 -116 -275 -143v-145h-223l4 149q-191 40 -311.5 175t-120.5 341z" />
<glyph unicode="&#xa3;" d="M145 0l7 240q100 32 145.5 122t42.5 207h-193v201h148q-2 10 -9.5 39.5t-11 44.5t-8 39.5t-6.5 45.5t-2 42q0 224 138.5 348.5t379.5 124.5q222 0 352.5 -103.5t139.5 -320.5h-230q-7 109 -74 156t-188 47q-137 0 -205.5 -68.5t-68.5 -177.5q0 -63 28 -211h447v-198h-402 q1 -48 -5 -98t-20.5 -103.5t-45 -95.5t-72.5 -60h623l8 215h225v-436h-1143z" />
<glyph unicode="&#xa4;" horiz-adv-x="1239" d="M119 324l117 114q-53 106 -50 211t56 205l-123 121l176 178l121 -123q87 43 205 43q107 0 200 -43l123 123l176 -178l-119 -119q52 -104 52 -217q0 -107 -52 -201l119 -114l-176 -177l-121 121q-92 -43 -207 -43q-104 0 -204 43l-117 -121zM379 647q0 -96 66.5 -166.5 t170.5 -70.5q108 0 172 70t64 167q0 99 -64.5 172.5t-171.5 73.5q-103 0 -170 -74t-67 -172z" />
<glyph unicode="&#xa5;" d="M39 1202v232h586v-232h-158l242 -383l258 383h-158v232h586v-232h-135l-265 -379h172v-192h-303l-26 -25v-78h340v-188h-340v-113h172v-227h-600v227h170v113h-332v188h332v76l-27 27h-301v192h174l-252 379h-135z" />
<glyph unicode="&#xa6;" horiz-adv-x="606" d="M180 -184v751h246v-751h-246zM180 700v754h246v-754h-246z" />
<glyph unicode="&#xa7;" horiz-adv-x="1234" d="M102 160l148 164q134 -145 364 -142q118 0 190.5 29.5t72.5 91.5q0 15 -6 28t-18.5 22t-25.5 16t-33.5 11.5t-36 7.5t-38.5 5t-36 3t-34.5 2t-27.5 1q-77 2 -147.5 12.5t-138.5 34t-117 58t-78 88t-27 119.5q2 60 37 115.5t106 91.5q-74 27 -106 88.5t-27 130.5 q4 76 41 135.5t91 94t125 56.5t136.5 29t132.5 6q129 0 252 -37t205 -123l-164 -133q-73 82 -293 82q-115 0 -195 -27.5t-81 -80.5q-1 -28 20 -48.5t65.5 -32t80.5 -17t94 -11.5q495 -32 495 -289q0 -73 -43 -134t-114 -89q67 -20 111 -82.5t44 -136.5q0 -73 -36 -133 t-92 -97t-127.5 -62.5t-137.5 -35.5t-127 -10q-155 0 -288.5 50t-215.5 149zM354 711q-1 -58 78.5 -89.5t188.5 -31.5q104 0 183 37t79 90q2 46 -70.5 85.5t-194.5 39.5q-109 0 -184.5 -34t-79.5 -97z" />
<glyph unicode="&#xa8;" horiz-adv-x="1003" d="M92 1343q0 68 45 107t105 41q58 0 102.5 -38.5t44.5 -106.5t-44 -106t-103 -38q-60 -2 -105 35.5t-45 105.5zM578 1343q0 68 44.5 107t104.5 41q58 0 102.5 -38.5t44.5 -106.5t-44 -106t-103 -38q-60 -2 -104.5 35.5t-44.5 105.5z" />
<glyph unicode="&#xa9;" horiz-adv-x="1675" d="M90 725q0 156 52 292.5t147 237.5t239 159.5t318 58.5q218 0 388 -100.5t260.5 -270t90.5 -377.5q0 -156 -49.5 -291.5t-141.5 -237.5t-233.5 -160.5t-314.5 -58.5q-139 0 -260.5 38.5t-211.5 107t-154.5 162t-97 205.5t-32.5 235zM295 721q0 -157 66.5 -283t193 -200 t291.5 -74q166 0 289.5 74.5t186 199.5t62.5 283t-62.5 283.5t-186 200.5t-289.5 75q-165 0 -291.5 -74.5t-193 -201t-66.5 -283.5zM457 723q0 184 117 294.5t294 110.5q164 0 289 -122l-123 -127q-64 61 -155 61q-105 0 -163.5 -61.5t-58.5 -153.5q0 -98 60 -154.5 t160 -56.5q87 0 161 74l125 -129q-67 -64 -136 -96.5t-155 -32.5q-178 0 -296.5 106.5t-118.5 286.5z" />
<glyph unicode="&#xaa;" horiz-adv-x="919" d="M68 1102q0 164 98.5 256t251.5 92q66 0 124.5 -29.5t92.5 -79.5v95h182v-664h-182l-6 96q-30 -56 -92.5 -86t-126.5 -32q-152 0 -247 93t-95 259zM98 477v178h723v-178h-723zM270 1100q0 -73 47.5 -122.5t116.5 -49.5q62 0 106 35t55 84.5t2 99t-52 84.5t-107 35 q-72 0 -120 -47.5t-48 -118.5z" />
<glyph unicode="&#xab;" horiz-adv-x="1032" d="M68 608l282 453h256l-284 -453l284 -454h-256zM414 608l282 453h258l-284 -453l284 -454h-258z" />
<glyph unicode="&#xac;" horiz-adv-x="1075" d="M131 563v215h799v-465h-215v250h-584z" />
<glyph unicode="&#xad;" horiz-adv-x="1001" d="M125 473v225h752v-225h-752z" />
<glyph unicode="&#xae;" horiz-adv-x="1667" d="M92 717q0 156 50.5 292t143.5 237.5t235 159.5t315 58q174 0 315 -58t233 -159.5t141.5 -237t49.5 -292.5q0 -156 -49.5 -291.5t-141 -237.5t-233 -160.5t-315.5 -58.5q-173 0 -315 59t-235 161t-143.5 238t-50.5 290zM297 717q0 -256 142.5 -404.5t396.5 -148.5 q165 0 289 74.5t187.5 200.5t63.5 282q0 157 -63.5 283t-187.5 201t-289 75q-166 0 -289.5 -75t-186.5 -201.5t-63 -286.5zM532 346v752h357q80 0 142 -31t95.5 -78.5t44 -106.5t-4 -113t-56.5 -99t-106 -64l186 -229v-31h-205l-176 238h-84v-238h-193zM725 745h162 q36 0 61 17.5t31 42.5t0.5 50t-30 42.5t-60.5 17.5h-164v-170z" />
<glyph unicode="&#xaf;" horiz-adv-x="1030" d="M143 1235v203h744v-203h-744z" />
<glyph unicode="&#xb0;" horiz-adv-x="688" d="M86.5 1220.5q0.5 46.5 18 90.5t48.5 78.5t82 55.5t113 21q79 0 138 -36.5t86 -91t28 -118t-25.5 -118t-85.5 -91t-141 -36.5q-64 0 -115 21t-82 55.5t-48 78.5t-16.5 90.5zM232.5 1219.5q-0.5 -40.5 29.5 -74t84 -33.5q52 0 81 33.5t28.5 74t-29.5 74t-80 33.5 q-52 0 -82.5 -33.5t-31 -74z" />
<glyph unicode="&#xb1;" horiz-adv-x="1081" d="M125 23v223h831v-223h-831zM125 657v226h297v305h237v-305h297v-226h-297v-295h-237v295h-297z" />
<glyph unicode="&#xb2;" horiz-adv-x="759" d="M72 848v190q0 119 71 192.5t191 84.5q88 9 127 23.5t39 52.5q0 34 -33.5 50.5t-81.5 16.5q-106 0 -115 -72h-180q0 61 25 107t67 72t91 38.5t104 12.5q142 0 223.5 -55t81.5 -172q0 -40 -11.5 -72.5t-27.5 -54.5t-44 -39t-49 -26t-56 -16.5t-51 -9.5t-47 -5q-3 0 -5 -0.5 t-4 -0.5q-24 -2 -37.5 -4.5t-34.5 -10t-32 -19.5t-20 -35t-9 -54v-26h252l6 92h164v-260h-604z" />
<glyph unicode="&#xb3;" horiz-adv-x="751" d="M68 1065h186q20 -72 125 -72q49 0 81 24t32 66q0 28 -7.5 47t-31 35t-66.5 16.5t-113 -7.5l-14 30l143 230h-159l-6 -80h-152v237h588v-37l-178 -251q190 -17 190 -220q0 -61 -20 -107.5t-51.5 -74.5t-75 -45.5t-84.5 -24t-86 -6.5q-54 0 -105 14t-95 41.5t-72 75 t-29 109.5z" />
<glyph unicode="&#xb4;" horiz-adv-x="487" d="M20 1145v12l150 275h291l-225 -287h-216z" />
<glyph unicode="&#xb5;" horiz-adv-x="1253" d="M94 -444v1454h238v-594q0 -123 77.5 -198t186.5 -75q110 0 186 76.5t76 218.5v572h236v-1010h-209l-23 80q-39 -62 -123 -96.5t-172 -34.5q-86 0 -155 29t-99 94v-516h-219z" />
<glyph unicode="&#xb6;" horiz-adv-x="1718" d="M55 891q0 82 22 160t67.5 147t109.5 121t155 82.5t197 30.5h1032v-234h-192v-1636h-238v1636h-424v-1638h-241v798q-117 11 -212 60.5t-154 123.5t-90.5 164t-31.5 185z" />
<glyph unicode="&#xb7;" horiz-adv-x="546" d="M115 596q0 75 48 116.5t113 39.5t110.5 -43t45.5 -113q0 -74 -45.5 -115t-110.5 -43t-113 40.5t-48 117.5z" />
<glyph unicode="&#xb8;" horiz-adv-x="768" d="M63 -365l105 101q21 -30 60 -50t85 -20q84 0 99 68q6 30 -14 58t-60 37.5t-98 -17.5l-60 41l60 192h172l-31 -98q126 4 183 -66.5t38 -173.5q-15 -91 -96 -148.5t-191 -54.5q-78 3 -146.5 37t-105.5 94z" />
<glyph unicode="&#xb9;" horiz-adv-x="544" d="M70 807v158h118v403l-102 -27v160l287 66v-602h127v-158h-430z" />
<glyph unicode="&#xba;" horiz-adv-x="856" d="M63 1100q0 155 102 250.5t259 95.5q158 0 260 -92t102 -252q0 -161 -103 -257.5t-257 -96.5q-160 0 -261.5 93t-101.5 259zM92 453v180h678v-180h-678zM258 1102q0 -74 45.5 -120t122.5 -46t122.5 44.5t45.5 119.5q0 78 -49 122t-121 44t-119 -43.5t-47 -120.5z" />
<glyph unicode="&#xbb;" horiz-adv-x="1028" d="M76 162l282 450l-282 451h254l282 -451l-282 -450h-254zM424 162l281 450l-281 451h252l282 -451l-282 -450h-252z" />
<glyph unicode="&#xbc;" horiz-adv-x="1587" d="M86 678v158h127v395l-107 -27v160l291 72v-600h127v-158h-438zM281 -4l784 1452h221l-790 -1452h-215zM850 283l344 467h240v-461h90v-162h-90v-123h-179v123h-395zM1040 289h215v284z" />
<glyph unicode="&#xbd;" horiz-adv-x="1667" d="M84 678v158h125v415l-109 -28v161l295 72v-620h127v-158h-438zM272 -4l787 1452h221l-788 -1450zM983 0v190q0 119 71 192.5t191 84.5q88 9 127 23.5t39 52.5q0 34 -33.5 50.5t-81.5 16.5q-105 0 -114 -71h-181q0 61 25 107.5t67 72.5t91 38.5t104 12.5q138 0 221.5 -56 t83.5 -173q0 -40 -11.5 -72.5t-27.5 -54.5t-44 -39t-49 -26t-56 -16.5t-51 -9.5t-47 -5q-3 0 -5 -0.5t-4 -0.5q-25 -2 -37.5 -4t-34 -10t-32.5 -19.5t-20 -34.5t-9 -54v-27h252l6 92h164v-260h-604z" />
<glyph unicode="&#xbe;" horiz-adv-x="1705" d="M74 934h186q20 -72 125 -72q49 0 81 24t32 66q0 22 -4.5 38t-17.5 31.5t-37 21t-63 8t-95 -8.5l-15 31l144 230h-160l-6 -80h-152v237h588v-37l-178 -252q190 -17 190 -219q0 -61 -20 -107.5t-51.5 -74.5t-75 -45.5t-84.5 -24t-86 -6.5q-54 0 -105 14t-95 41.5t-72 75 t-29 109.5zM418 0l729 1448h221l-735 -1448h-215zM956 287l344 491h240v-485h102v-162h-102v-135h-178v135h-395zM1147 293h215v305z" />
<glyph unicode="&#xbf;" horiz-adv-x="1230" d="M61 14q4 71 23 125.5t45.5 87t65.5 60.5t73.5 43.5t79.5 38t74 43.5q30 21 44 33t33 36.5t27 57.5t9 79h256q1 -41 -3 -77t-9 -64t-17.5 -54t-21.5 -43.5t-28 -37t-30 -29.5t-35.5 -26t-35.5 -22.5t-38 -22.5q-16 -9 -60 -31t-71 -38t-60.5 -41.5t-50 -56.5t-16.5 -67 q0 -53 19.5 -92t48 -60t72 -33.5t80.5 -16t83 -3.5q83 0 153 23.5t115 73t46 116.5h244q-1 -110 -48.5 -197.5t-127.5 -141.5t-179.5 -82.5t-208.5 -28.5q-119 0 -217 25t-175 77t-119 140t-40 206zM506 874q0 73 46.5 115.5t109.5 42.5q64 0 110.5 -42t46.5 -116 q0 -72 -46 -113.5t-109 -41.5q-64 0 -111 41t-47 114z" />
<glyph unicode="&#xc0;" horiz-adv-x="1658" d="M23 0v231h127l452 973h-143v230h528l526 -1203h127v-231h-559v231h166q-18 36 -42 96.5t-29 71.5h-682q-4 -9 -32 -69t-44 -99h160v-231h-555zM485 1831h299l152 -277v-12h-225zM592 625h483q-1 3 -81 202.5t-148 356.5q-51 -113 -136 -299t-118 -260z" />
<glyph unicode="&#xc1;" horiz-adv-x="1658" d="M23 0v231h127l452 973h-143v230h528l526 -1203h127v-231h-559v231h166q-18 36 -42 96.5t-29 71.5h-682q-4 -9 -32 -69t-44 -99h160v-231h-555zM592 625h483q-1 3 -81 202.5t-148 356.5q-51 -113 -136 -299t-118 -260zM686 1528v12l150 275h290l-225 -287h-215z" />
<glyph unicode="&#xc2;" horiz-adv-x="1658" d="M23 0v231h127l452 973h-143v230h528l526 -1203h127v-231h-559v231h166q-18 36 -42 96.5t-29 71.5h-682q-4 -9 -32 -69t-44 -99h160v-231h-555zM420 1532v22l303 277h182l299 -279v-20h-246l-147 121l-145 -121h-246zM592 625h483q-1 3 -81 202.5t-148 356.5 q-51 -113 -136 -299t-118 -260z" />
<glyph unicode="&#xc3;" horiz-adv-x="1658" d="M23 0v231h127l452 973h-143v230h528l526 -1203h127v-231h-559v231h166q-18 36 -42 96.5t-29 71.5h-682q-4 -9 -32 -69t-44 -99h160v-231h-555zM459 1618q24 100 104.5 151t171.5 29q21 -5 70.5 -29.5t66.5 -29.5q36 -9 61 1.5t44 57.5l156 -67q-12 -51 -35 -90t-51 -60.5 t-60.5 -34t-63 -11.5t-59.5 7q-25 5 -123 53q-39 19 -75 0.5t-50 -59.5zM592 625h483q-1 3 -81 202.5t-148 356.5q-51 -113 -136 -299t-118 -260z" />
<glyph unicode="&#xc4;" horiz-adv-x="1658" d="M23 0v231h127l452 973h-143v230h528l526 -1203h127v-231h-559v231h166q-18 36 -42 96.5t-29 71.5h-682q-4 -9 -32 -69t-44 -99h160v-231h-555zM446 1667q0 68 45 107t105 41q57 0 102 -39t45 -107t-44 -105.5t-103 -37.5q-60 -2 -105 35.5t-45 105.5zM592 625h483 q-1 3 -81 202.5t-148 356.5q-51 -113 -136 -299t-118 -260zM932 1667q0 68 44.5 107t104.5 41q58 0 103 -39t45 -107t-44.5 -105.5t-103.5 -37.5q-60 -2 -104.5 35.5t-44.5 105.5z" />
<glyph unicode="&#xc5;" horiz-adv-x="1658" d="M23 0v231h127l514 1117q-55 49 -74 95.5t-19 106.5q0 107 84.5 171.5t196.5 64.5q70 0 129.5 -25.5t99 -81.5t39.5 -133q0 -125 -96 -200l489 -1115h127v-231h-557v231h166q-18 34 -40.5 91.5t-32.5 76.5h-682l-76 -168h160v-231h-555zM592 625h483q32 -73 -4 22 q-99 260 -219 550l-2 5zM741 1528q0 -36 25 -68.5t82 -32.5q59 0 86 32.5t27 68.5q0 38 -26.5 69t-84.5 31q-57 0 -83 -33.5t-26 -66.5z" />
<glyph unicode="&#xc6;" horiz-adv-x="1976" d="M18 0v231h160l631 975h-152v228h1196v-443h-223l-10 209h-367v-360h355v-232h-355v-370h389l11 215h223v-453h-1022v231h160v185h-441l-110 -185h127v-231h-572zM698 621h316v520z" />
<glyph unicode="&#xc7;" horiz-adv-x="1421" d="M84 707q-2 114 26.5 222t90.5 204.5t150.5 169t215.5 115t277 42.5q247 0 463 -160q0 -111 -4 -315h-228l-10 197q-83 37 -221 37q-128 0 -228.5 -44.5t-160 -118t-90 -162t-29.5 -183.5q3 -72 19 -139t54 -134t93.5 -115.5t143.5 -79t198 -30.5q94 0 193.5 39.5 t166.5 107.5l180 -174q-208 -199 -481 -213l-43 -106q54 -1 96 -16.5t65.5 -40t38 -55.5t15 -63t-3.5 -63q-14 -71 -63 -121.5t-115 -69t-136.5 -14t-136.5 43.5t-106 104l113 88q24 -41 78.5 -60t106 -4t67.5 62q11 37 -17 64t-71.5 28.5t-88.5 -22.5l-51 41l86 213 q-133 13 -242 59.5t-183.5 116t-126.5 159t-76 187t-25 203.5z" />
<glyph unicode="&#xc8;" horiz-adv-x="1423" d="M111 0v231h161v973h-157v230h1181v-443h-223l-10 211h-541v-362h531v-230h-531v-372h572l10 215h223v-453h-1216zM440 1815h287l154 -277v-12h-215z" />
<glyph unicode="&#xc9;" horiz-adv-x="1423" d="M111 0v231h161v973h-157v230h1181v-443h-223l-10 211h-541v-362h531v-230h-531v-372h572l10 215h223v-453h-1216zM635 1524v12l149 274h291l-225 -286h-215z" />
<glyph unicode="&#xca;" horiz-adv-x="1423" d="M111 0v231h161v973h-157v230h1181v-443h-223l-10 211h-541v-362h531v-230h-531v-372h572l10 215h223v-453h-1216zM344 1518v20l289 262h209l286 -262v-20h-239l-154 122l-151 -122h-240z" />
<glyph unicode="&#xcb;" horiz-adv-x="1423" d="M111 0v231h161v973h-157v230h1181v-443h-223l-10 211h-541v-362h531v-230h-531v-372h572l10 215h223v-453h-1216zM322 1673q0 66 42 103t99 39q57 0 100 -37.5t43 -102.5t-42 -101t-101 -36q-57 -2 -99 34t-42 101zM825 1673q0 66 42.5 102.5t99.5 36.5q58 0 100.5 -36.5 t42.5 -102.5q0 -65 -42.5 -102t-100.5 -37q-57 0 -99.5 37t-42.5 102z" />
<glyph unicode="&#xcc;" horiz-adv-x="804" d="M72 1825h288l152 -277v-12h-215zM106 0v231h173v971h-166v232h587v-232h-170v-971h172v-231h-596z" />
<glyph unicode="&#xcd;" horiz-adv-x="804" d="M106 0v231h173v971h-166v232h587v-232h-170v-971h172v-231h-596zM293 1534v14l147 275h293l-225 -289h-215z" />
<glyph unicode="&#xce;" horiz-adv-x="804" d="M45 1532v20l295 308h121l291 -308v-20h-222l-133 141l-133 -141h-219zM106 0v231h173v971h-166v232h587v-232h-170v-971h172v-231h-596z" />
<glyph unicode="&#xcf;" horiz-adv-x="804" d="M57 1655q0 66 42.5 103.5t99.5 37.5t99 -36t42 -101t-41.5 -102t-99.5 -37q-57 0 -99.5 35.5t-42.5 99.5zM106 0v231h173v971h-166v232h587v-232h-170v-971h172v-231h-596zM481 1655q0 66 42.5 103.5t99.5 37.5t99 -37t42 -104q0 -65 -41.5 -102t-99.5 -37 q-57 0 -99.5 37t-42.5 102z" />
<glyph unicode="&#xd0;" horiz-adv-x="1599" d="M109 0v231h163v353h-143v221h143v403h-161v230h682q179 0 318 -55t225.5 -152t129.5 -224.5t41 -277.5q-1 -119 -27 -225t-82 -199.5t-137.5 -160.5t-201 -105.5t-266.5 -38.5h-684zM528 231h265q97 0 176 29.5t130.5 78.5t86.5 115t50.5 135t16.5 144q2 93 -25.5 176.5 t-82.5 150.5t-146 106.5t-206 39.5h-265v-401h320v-221h-320v-353z" />
<glyph unicode="&#xd1;" horiz-adv-x="1769" d="M104 1202v232h355l809 -979v747h-170v232h575v-232h-155v-1202h-170l-824 977v-748h168v-229h-573v229h153v973h-168zM516 1647q26 103 113.5 156.5t185.5 29.5q22 -5 75 -30.5t73 -30.5q38 -9 65 2t47 59l168 -70q-13 -53 -38 -93t-55 -62t-65 -34.5t-67.5 -11.5 t-63.5 7q-18 4 -40 12.5t-57 25.5t-36 17q-42 19 -80.5 0t-54.5 -61z" />
<glyph unicode="&#xd2;" horiz-adv-x="1638" d="M86 707q0 171 57.5 314t157.5 239t236.5 149t293.5 53q142 -1 262 -42.5t204 -112.5t142.5 -166.5t86 -204t26.5 -225.5q-1 -114 -28 -221t-86 -203t-143 -167t-206 -113t-268 -42t-268.5 41t-207.5 112t-144.5 166t-87 202t-27.5 221zM338 709q0 -101 28.5 -189t86 -160 t153 -113.5t219.5 -41.5q99 0 180 29.5t134.5 78.5t90 115.5t52.5 137t16 145.5q1 78 -14.5 150t-51.5 138.5t-89 116t-133.5 79.5t-178.5 32q-154 0 -266.5 -67.5t-169 -183.5t-57.5 -267zM520 1878h293l148 -274v-15h-216z" />
<glyph unicode="&#xd3;" horiz-adv-x="1638" d="M86 707q0 171 57.5 314t157.5 239t236.5 149t293.5 53q142 -1 262 -42.5t204 -112.5t142.5 -166.5t86 -204t26.5 -225.5q-1 -114 -28 -221t-86 -203t-143 -167t-206 -113t-268 -42t-268.5 41t-207.5 112t-144.5 166t-87 202t-27.5 221zM338 709q0 -101 28.5 -189t86 -160 t153 -113.5t219.5 -41.5q99 0 180 29.5t134.5 78.5t90 115.5t52.5 137t16 145.5q1 78 -14.5 150t-51.5 138.5t-89 116t-133.5 79.5t-178.5 32q-154 0 -266.5 -67.5t-169 -183.5t-57.5 -267zM719 1602v12l149 278h291l-225 -290h-215z" />
<glyph unicode="&#xd4;" horiz-adv-x="1638" d="M86 707q0 171 57.5 314t157.5 239t236.5 149t293.5 53q142 -1 262 -42.5t204 -112.5t142.5 -166.5t86 -204t26.5 -225.5q-1 -114 -28 -221t-86 -203t-143 -167t-206 -113t-268 -42t-268.5 41t-207.5 112t-144.5 166t-87 202t-27.5 221zM338 709q0 -101 28.5 -189t86 -160 t153 -113.5t219.5 -41.5q99 0 180 29.5t134.5 78.5t90 115.5t52.5 137t16 145.5q1 78 -14.5 150t-51.5 138.5t-89 116t-133.5 79.5t-178.5 32q-154 0 -266.5 -67.5t-169 -183.5t-57.5 -267zM444 1569v22l304 277h182l299 -279v-20h-246l-147 121l-146 -121h-246z" />
<glyph unicode="&#xd5;" horiz-adv-x="1638" d="M86 707q0 171 57.5 314t157.5 239t236.5 149t293.5 53q142 -1 262 -42.5t204 -112.5t142.5 -166.5t86 -204t26.5 -225.5q-1 -114 -28 -221t-86 -203t-143 -167t-206 -113t-268 -42t-268.5 41t-207.5 112t-144.5 166t-87 202t-27.5 221zM338 709q0 -101 28.5 -189t86 -160 t153 -113.5t219.5 -41.5q99 0 180 29.5t134.5 78.5t90 115.5t52.5 137t16 145.5q1 78 -14.5 150t-51.5 138.5t-89 116t-133.5 79.5t-178.5 32q-154 0 -266.5 -67.5t-169 -183.5t-57.5 -267zM479 1665q24 98 107.5 149t177.5 29q21 -5 71.5 -29.5t69.5 -29.5q21 -4 40 -4 t36.5 15.5t30.5 47.5l162 -67q-12 -51 -36 -89.5t-53 -59.5t-62.5 -33.5t-65 -11.5t-60.5 7q-31 6 -127 53q-41 19 -78 0t-51 -59z" />
<glyph unicode="&#xd6;" horiz-adv-x="1638" d="M86 707q0 171 57.5 314t157.5 239t236.5 149t293.5 53q142 -1 262 -42.5t204 -112.5t142.5 -166.5t86 -204t26.5 -225.5q-1 -114 -28 -221t-86 -203t-143 -167t-206 -113t-268 -42t-268.5 41t-207.5 112t-144.5 166t-87 202t-27.5 221zM338 709q0 -101 28.5 -189t86 -160 t153 -113.5t219.5 -41.5q99 0 180 29.5t134.5 78.5t90 115.5t52.5 137t16 145.5q1 78 -14.5 150t-51.5 138.5t-89 116t-133.5 79.5t-178.5 32q-154 0 -266.5 -67.5t-169 -183.5t-57.5 -267zM463 1724q0 68 42.5 106t100.5 38q59 0 102.5 -38t43.5 -106q0 -66 -43.5 -103.5 t-102.5 -37.5q-58 0 -100.5 37t-42.5 104zM958 1720q0 68 44 107t102 39t100.5 -37.5t42.5 -104.5t-42.5 -104t-102.5 -37q-59 0 -101.5 36t-42.5 101z" />
<glyph unicode="&#xd7;" horiz-adv-x="948" d="M117 446l207 205l-205 203l160 150l196 -201l203 203l153 -150l-208 -215l208 -211l-149 -141l-203 209l-205 -205z" />
<glyph unicode="&#xd8;" horiz-adv-x="1642" d="M88 711q0 152 48.5 287.5t139 240t232.5 166t317 61.5q145 0 269 -43l80 146h251l-147 -248q136 -106 207 -267t71 -343q-1 -114 -28.5 -221t-86.5 -203t-143 -167t-206 -113t-267 -42q-155 0 -288 47l-93 -162h-245l153 271q-131 101 -197.5 256.5t-66.5 333.5zM346 709 q0 -105 34 -202t99 -165l492 877q-67 12 -142 12q-123 0 -219 -43.5t-153 -117.5t-85 -166t-26 -195zM659 227q68 -16 168 -16t181 29t135 77t90.5 113.5t52.5 135.5t17 145q0 111 -38 217t-112 178z" />
<glyph unicode="&#xd9;" horiz-adv-x="1724" d="M88 1202v232h584v-232h-183v-600q0 -198 97.5 -301.5t277.5 -103.5q170 0 273.5 108.5t103.5 298.5v598h-182v232h583v-232h-153v-600q0 -132 -33.5 -239.5t-91.5 -181.5t-137.5 -124t-170.5 -73t-192 -23q-129 0 -239 37t-198 111.5t-138.5 200.5t-50.5 292v600h-150z M549 1817h289l151 -275v-12h-215z" />
<glyph unicode="&#xda;" horiz-adv-x="1724" d="M88 1202v232h584v-232h-183v-600q0 -198 97.5 -301.5t277.5 -103.5q170 0 273.5 108.5t103.5 298.5v598h-182v232h583v-232h-153v-600q0 -132 -33.5 -239.5t-91.5 -181.5t-137.5 -124t-170.5 -73t-192 -23q-129 0 -239 37t-198 111.5t-138.5 200.5t-50.5 292v600h-150z M741 1526v14l158 264h307l-239 -278h-226z" />
<glyph unicode="&#xdb;" horiz-adv-x="1724" d="M88 1202v232h584v-232h-183v-600q0 -198 97.5 -301.5t277.5 -103.5q170 0 273.5 108.5t103.5 298.5v598h-182v232h583v-232h-153v-600q0 -132 -33.5 -239.5t-91.5 -181.5t-137.5 -124t-170.5 -73t-192 -23q-129 0 -239 37t-198 111.5t-138.5 200.5t-50.5 292v600h-150z M483 1563v22l303 277h183l299 -279v-20h-246l-148 120l-145 -120h-246z" />
<glyph unicode="&#xdc;" horiz-adv-x="1724" d="M88 1202v232h584v-232h-183v-600q0 -198 97.5 -301.5t277.5 -103.5q170 0 273.5 108.5t103.5 298.5v598h-182v232h583v-232h-153v-600q0 -132 -33.5 -239.5t-91.5 -181.5t-137.5 -124t-170.5 -73t-192 -23q-129 0 -239 37t-198 111.5t-138.5 200.5t-50.5 292v600h-150z M367 1686q0 70 45 108.5t108 38.5t108.5 -37.5t45.5 -105.5t-45.5 -107t-108.5 -39t-108 37.5t-45 104.5zM1057 1686q0 70 45 108.5t108 38.5t108.5 -37.5t45.5 -105.5t-45.5 -107t-108.5 -39t-108 37.5t-45 104.5z" />
<glyph unicode="&#xdd;" horiz-adv-x="1462" d="M41 1202v232h590v-232h-152l254 -403l256 403h-147v232h588v-232h-136l-436 -641v-334h172v-227h-602v227h172v334l-426 641h-133zM631 1546v13l147 274h293l-225 -287h-215z" />
<glyph unicode="&#xde;" horiz-adv-x="1406" d="M102 0v217h164v1004h-164v215h605v-215h-191v-95h377q128 0 228 -44.5t151.5 -116t75.5 -157.5t-0.5 -172.5t-76.5 -158t-153 -116t-229 -44.5h-373v-100h191v-217h-605zM520 539h373q59 1 105.5 22.5t70.5 54t35 72t0 79t-35 72t-70.5 52.5t-105.5 20h-373v-372z" />
<glyph unicode="&#xdf;" horiz-adv-x="1333" d="M57 0v207h144v852q0 78 27.5 144.5t74.5 113t108.5 79.5t130 48.5t138.5 15.5q103 0 189.5 -23t153 -69t103.5 -121t37 -172q0 -106 -74.5 -182t-185.5 -88v-2q94 -6 174 -51t131.5 -130.5t51.5 -195.5q0 -116 -37 -203.5t-103 -139t-148 -77t-181 -26.5q-100 0 -207 22 l-9 213q109 -25 170 -25q125 -1 192 60.5t67 171.5q0 254 -318 254h-102v233h94q56 0 106.5 13t89.5 48.5t41 88.5q1 48 -18.5 83.5t-54 54.5t-73 27.5t-81.5 8.5q-105 0 -168.5 -46.5t-64.5 -129.5l2 -1057h-400z" />
<glyph unicode="&#xe0;" horiz-adv-x="1198" d="M70 295q0 106 47.5 179t122 105.5t172.5 41.5t191 -2t185 -35v69q0 49 -20.5 84t-56.5 53.5t-77 28.5t-90 9.5t-88 -3.5t-77 -10l-10 -108h-213l-2 262q155 63 383 63q76 1 142 -9t131 -36.5t111 -68.5t74.5 -111t28.5 -158v-440h152v-209h-336l-31 104 q-66 -62 -149 -94.5t-166 -32.5q-118 0 -212 33.5t-153 107t-59 177.5zM295 1448h280l148 -258v-12h-211zM301 313q0 -64 59.5 -97.5t163.5 -33.5q106 0 183.5 61t89.5 154q-135 55 -291 49q-97 -3 -151 -38t-54 -95z" />
<glyph unicode="&#xe1;" horiz-adv-x="1198" d="M70 295q0 106 47.5 179t122 105.5t172.5 41.5t191 -2t185 -35v69q0 49 -20.5 84t-56.5 53.5t-77 28.5t-90 9.5t-88 -3.5t-77 -10l-10 -108h-213l-2 262q155 63 383 63q76 1 142 -9t131 -36.5t111 -68.5t74.5 -111t28.5 -158v-440h152v-209h-336l-31 104 q-66 -62 -149 -94.5t-166 -32.5q-118 0 -212 33.5t-153 107t-59 177.5zM301 313q0 -64 59.5 -97.5t163.5 -33.5q106 0 183.5 61t89.5 154q-135 55 -291 49q-97 -3 -151 -38t-54 -95zM420 1159v10l135 261h289l-207 -271h-217z" />
<glyph unicode="&#xe2;" horiz-adv-x="1198" d="M70 295q0 106 47.5 179t122 105.5t172.5 41.5t191 -2t185 -35v69q0 49 -20.5 84t-56.5 53.5t-77 28.5t-90 9.5t-88 -3.5t-77 -10l-10 -108h-213l-2 262q155 63 383 63q76 1 142 -9t131 -36.5t111 -68.5t74.5 -111t28.5 -158v-440h152v-209h-336l-31 104 q-66 -62 -149 -94.5t-166 -32.5q-118 0 -212 33.5t-153 107t-59 177.5zM186 1149v14l291 271h178l289 -271v-14h-246l-135 123l-137 -123h-240zM301 313q0 -64 59.5 -97.5t163.5 -33.5q106 0 183.5 61t89.5 154q-135 55 -291 49q-97 -3 -151 -38t-54 -95z" />
<glyph unicode="&#xe3;" horiz-adv-x="1198" d="M70 295q0 106 47.5 179t122 105.5t172.5 41.5t191 -2t185 -35v69q0 49 -20.5 84t-56.5 53.5t-77 28.5t-90 9.5t-88 -3.5t-77 -10l-10 -108h-213l-2 262q155 63 383 63q76 1 142 -9t131 -36.5t111 -68.5t74.5 -111t28.5 -158v-440h152v-209h-336l-31 104 q-66 -62 -149 -94.5t-166 -32.5q-118 0 -212 33.5t-153 107t-59 177.5zM231 1253q24 100 105 151.5t172 29.5q21 -5 70.5 -30t66.5 -30q36 -9 61 2t44 58l155 -68q-12 -51 -35 -90t-50.5 -60t-60 -34t-63 -11.5t-59.5 7.5q-25 5 -123 53q-39 19 -75 0t-50 -60zM301 313 q0 -64 59.5 -97.5t163.5 -33.5q106 0 183.5 61t89.5 154q-135 55 -291 49q-97 -3 -151 -38t-54 -95z" />
<glyph unicode="&#xe4;" horiz-adv-x="1198" d="M70 295q0 106 47.5 179t122 105.5t172.5 41.5t191 -2t185 -35v69q0 49 -20.5 84t-56.5 53.5t-77 28.5t-90 9.5t-88 -3.5t-77 -10l-10 -108h-213l-2 262q155 63 383 63q76 1 142 -9t131 -36.5t111 -68.5t74.5 -111t28.5 -158v-440h152v-209h-336l-31 104 q-66 -62 -149 -94.5t-166 -32.5q-118 0 -212 33.5t-153 107t-59 177.5zM213 1288q0 68 43 106t102 40q58 0 101 -37.5t43 -104.5t-43 -104t-103 -37q-59 0 -101 36t-42 101zM301 313q0 -64 59.5 -97.5t163.5 -33.5q106 0 183.5 61t89.5 154q-135 55 -291 49q-97 -3 -151 -38 t-54 -95zM668 1288q0 68 42.5 106t100.5 38q59 0 102 -38t43 -106q0 -67 -43 -104t-102 -37q-58 0 -100.5 38t-42.5 103z" />
<glyph unicode="&#xe5;" horiz-adv-x="1198" d="M70 295q0 106 47.5 179t122 105.5t172.5 41.5t191 -2t185 -35v69q0 49 -20.5 84t-56.5 53.5t-77 28.5t-90 9.5t-88 -3.5t-77 -10l-10 -108h-213l-2 262q155 63 383 63q76 1 142 -9t131 -36.5t111 -68.5t74.5 -111t28.5 -158v-440h152v-209h-336l-31 104 q-66 -62 -149 -94.5t-166 -32.5q-118 0 -212 33.5t-153 107t-59 177.5zM301 313q0 -64 59.5 -97.5t163.5 -33.5q106 0 183.5 61t89.5 154q-135 55 -291 49q-97 -3 -151 -38t-54 -95zM328 1329q0 104 76.5 161.5t185.5 57.5q68 0 127 -23t99 -73.5t40 -120.5q0 -103 -78 -158 t-194 -55q-112 0 -184 60.5t-72 150.5zM483 1339q0 -31 23.5 -56.5t79.5 -25.5q61 0 90 26.5t29 55.5q0 28 -29 52t-86 24t-82 -24.5t-25 -51.5z" />
<glyph unicode="&#xe6;" horiz-adv-x="2048" d="M76 496q0 163 72.5 286t192 185t267.5 61q106 0 182.5 -31t149.5 -104v127h207v-133q132 154 352 147q110 -2 203 -40t163 -111.5t100 -194.5t9 -274h-803q13 -93 99.5 -158.5t216.5 -65.5q76 0 154 26t120 71l154 -148q-76 -81 -194 -124.5t-240 -43.5q-224 0 -340 148 v-119h-203v117q-70 -85 -149 -118.5t-183 -35.5q-150 0 -269.5 62.5t-190 185t-70.5 285.5zM319 489q0 -138 85 -225.5t217 -87.5q155 0 241 89t86 224q3 134 -85 221t-236 87q-132 0 -220 -82.5t-88 -225.5zM1176 604l569 -6q-13 103 -85.5 161t-180.5 58 q-106 0 -192 -56.5t-111 -156.5z" />
<glyph unicode="&#xe7;" horiz-adv-x="1079" d="M76 508q0 109 31 199.5t83.5 150.5t123 101.5t146.5 60t158 18.5q204 0 369 -69l-10 -316h-209v164q-65 17 -137 14q-139 -6 -226.5 -90t-87.5 -233q0 -82 29.5 -143.5t78 -94t101.5 -48t109 -15.5q159 0 239 92l154 -160q-144 -147 -360 -157l-29 -82q124 4 183.5 -64.5 t41.5 -163.5q-15 -87 -98.5 -143t-192.5 -53q-77 3 -143.5 36.5t-103.5 92.5l102 94q21 -29 59.5 -48.5t83.5 -19.5q43 0 68.5 19t30.5 47q8 58 -37 81.5t-135 -7.5l-58 39l64 180q-193 33 -310.5 164t-117.5 354z" />
<glyph unicode="&#xe8;" horiz-adv-x="1187" d="M74 514q0 229 150 377.5t388 148.5q258 0 397 -160.5t111 -461.5h-805q12 -93 99.5 -158t216.5 -65q77 0 155.5 25.5t120.5 70.5l152 -148q-76 -81 -194 -124.5t-240 -43.5q-255 0 -403 148.5t-148 390.5zM315 610h576q-15 104 -88.5 160.5t-184.5 56.5 q-106 0 -192 -57.5t-111 -159.5zM334 1452h291l149 -274v-13h-215z" />
<glyph unicode="&#xe9;" horiz-adv-x="1187" d="M74 514q0 229 150 377.5t388 148.5q258 0 397 -160.5t111 -461.5h-805q12 -93 99.5 -158t216.5 -65q77 0 155.5 25.5t120.5 70.5l152 -148q-76 -81 -194 -124.5t-240 -43.5q-255 0 -403 148.5t-148 390.5zM315 610h576q-15 104 -88.5 160.5t-184.5 56.5 q-106 0 -192 -57.5t-111 -159.5zM459 1167v15l147 274h293l-225 -289h-215z" />
<glyph unicode="&#xea;" horiz-adv-x="1187" d="M74 514q0 229 150 377.5t388 148.5q258 0 397 -160.5t111 -461.5h-805q12 -93 99.5 -158t216.5 -65q77 0 155.5 25.5t120.5 70.5l152 -148q-76 -81 -194 -124.5t-240 -43.5q-255 0 -403 148.5t-148 390.5zM244 1149v20l315 287h135l318 -287v-20h-246l-139 127l-140 -127 h-243zM315 610h576q-15 104 -88.5 160.5t-184.5 56.5q-106 0 -192 -57.5t-111 -159.5z" />
<glyph unicode="&#xeb;" horiz-adv-x="1187" d="M74 514q0 229 150 377.5t388 148.5q258 0 397 -160.5t111 -461.5h-805q12 -93 99.5 -158t216.5 -65q77 0 155.5 25.5t120.5 70.5l152 -148q-76 -81 -194 -124.5t-240 -43.5q-255 0 -403 148.5t-148 390.5zM248 1323q0 69 43.5 107t103.5 38q59 0 101.5 -37t42.5 -104 q0 -68 -44 -105.5t-104 -37.5q-58 0 -100.5 37t-42.5 102zM315 610h576q-15 104 -88.5 160.5t-184.5 56.5q-106 0 -192 -57.5t-111 -159.5zM707 1323q0 69 43.5 107t103.5 38q58 0 100.5 -38.5t42.5 -106.5t-40.5 -105.5t-100.5 -37.5t-104.5 37.5t-44.5 105.5z" />
<glyph unicode="&#xec;" horiz-adv-x="663" d="M80 0v211h143v598h-141v209h383v-807h135v-211h-520zM145 1448h254l68 -283v-12h-199z" />
<glyph unicode="&#xed;" horiz-adv-x="663" d="M80 0v211h145v598h-141v209h381v-807h135v-211h-520zM193 1155v12l67 283h250l-119 -295h-198z" />
<glyph unicode="&#xee;" horiz-adv-x="663" d="M45 1147v39l215 239h141l207 -243v-35h-196l-82 98l-86 -98h-199zM80 0v211h145v598h-141v209h381v-807h135v-211h-520z" />
<glyph unicode="&#xef;" horiz-adv-x="663" d="M-4 1260q0 65 42 101t101 36q58 0 101 -36t43 -101q0 -67 -43 -104.5t-101 -37.5t-100.5 37.5t-42.5 104.5zM80 0v211h145v598h-141v209h381v-807h135v-211h-520zM377 1260q0 65 42 101t101 36q58 0 101 -36t43 -101q0 -67 -43 -104.5t-101 -37.5t-100.5 37.5 t-42.5 104.5z" />
<glyph unicode="&#xf0;" horiz-adv-x="1222" d="M76 485q0 99 34.5 188.5t97 157t157 108.5t206.5 42q82 2 143.5 -14.5t129.5 -65.5q-38 72 -108 132.5t-126 90.5l-71 -94l-119 88l59 76q-61 34 -178 47l45 199q94 -13 147.5 -27.5t129.5 -46.5l94 111l123 -88l-84 -97q97 -69 166.5 -145.5t109.5 -148t62.5 -157.5 t29.5 -160t6 -169q0 -237 -144.5 -386t-385.5 -149q-133 0 -236 43t-164.5 115.5t-92.5 161.5t-31 188zM322 487q0 -55 17.5 -107t51 -95t88 -69t121.5 -26q131 0 211 88.5t80 208.5q0 115 -80 201t-211 86t-204.5 -86t-73.5 -201z" />
<glyph unicode="&#xf1;" horiz-adv-x="1390" d="M78 0v213h160v594h-152v209h363l16 -127q66 72 140 106.5t173 34.5q218 -5 324 -126t106 -367v-324h158v-213h-522v213h127v322q0 143 -51.5 207.5t-182.5 64.5q-114 0 -189 -76t-75 -217v-301h152v-213h-547zM391 1274q24 100 105 151t172 29q21 -5 70.5 -29.5 t66.5 -29.5q36 -9 60.5 1.5t43.5 57.5l156 -68q-12 -51 -35 -90t-50.5 -60t-60 -34t-63 -11.5t-59.5 7.5q-25 5 -123 53q-39 19 -75 0.5t-50 -59.5z" />
<glyph unicode="&#xf2;" horiz-adv-x="1214" d="M74 504q0 231 147.5 382.5t386.5 151.5q249 0 391 -149t142 -385q0 -147 -63.5 -266t-186.5 -190t-285 -71q-247 0 -389.5 146.5t-142.5 380.5zM313 504q0 -131 74.5 -217t218.5 -86q145 0 220.5 86t78.5 217q0 137 -82.5 227t-212.5 90q-137 0 -217 -88.5t-80 -228.5z M346 1423v11h281l135 -248v-12h-225z" />
<glyph unicode="&#xf3;" horiz-adv-x="1214" d="M74 504q0 231 147.5 382.5t386.5 151.5q249 0 391 -149t142 -385q0 -147 -63.5 -266t-186.5 -190t-285 -71q-247 0 -389.5 146.5t-142.5 380.5zM313 504q0 -131 74.5 -217t218.5 -86q145 0 220.5 86t78.5 217q0 137 -82.5 227t-212.5 90q-137 0 -217 -88.5t-80 -228.5z M481 1157v14l146 261h286l-221 -275h-211z" />
<glyph unicode="&#xf4;" horiz-adv-x="1214" d="M74 504q0 231 147.5 382.5t386.5 151.5q249 0 391 -149t142 -385q0 -147 -63.5 -266t-186.5 -190t-285 -71q-247 0 -389.5 146.5t-142.5 380.5zM240 1153v21l288 262h174l287 -265v-18h-235l-142 113l-139 -113h-233zM313 504q0 -131 74.5 -217t218.5 -86q145 0 220.5 86 t78.5 217q0 137 -82.5 227t-212.5 90q-137 0 -217 -88.5t-80 -228.5z" />
<glyph unicode="&#xf5;" horiz-adv-x="1214" d="M74 504q0 231 147.5 382.5t386.5 151.5q249 0 391 -149t142 -385q0 -147 -63.5 -266t-186.5 -190t-285 -71q-247 0 -389.5 146.5t-142.5 380.5zM279 1268q24 99 104 149.5t170 28.5q21 -5 70.5 -30t66.5 -30q36 -9 60 2t43 58l155 -68q-12 -51 -35 -89.5t-50.5 -59 t-59.5 -33.5t-62.5 -11.5t-58.5 7.5q-25 5 -123 53q-39 19 -75 0.5t-50 -59.5zM313 504q0 -131 74.5 -217t218.5 -86q145 0 220.5 86t78.5 217q0 137 -82.5 227t-212.5 90q-137 0 -217 -88.5t-80 -228.5z" />
<glyph unicode="&#xf6;" horiz-adv-x="1214" d="M74 504q0 231 147.5 382.5t386.5 151.5q249 0 391 -149t142 -385q0 -147 -63.5 -266t-186.5 -190t-285 -71q-247 0 -389.5 146.5t-142.5 380.5zM229 1286q0 68 43 107t103 41q61 2 106 -37.5t45 -110.5q0 -69 -44 -107t-105 -38q-60 0 -104 38.5t-44 106.5zM313 504 q0 -131 74.5 -217t218.5 -86q145 0 220.5 86t78.5 217q0 137 -82.5 227t-212.5 90q-137 0 -217 -88.5t-80 -228.5zM696 1282q0 70 44 110t104 40t104.5 -39t44.5 -107q0 -67 -42.5 -105t-100.5 -40q-62 -2 -108 35t-46 106z" />
<glyph unicode="&#xf7;" horiz-adv-x="1130" d="M96 547v233h940v-233h-940zM432 283q0 67 41.5 105t99.5 38q57 0 99.5 -38t42.5 -105q0 -64 -40.5 -102t-94.5 -38q-61 0 -104.5 36t-43.5 104zM432 1036q0 68 42.5 106t100.5 38q56 0 98 -38.5t42 -105.5q0 -64 -39 -99.5t-96 -37.5q-59 -2 -103.5 34.5t-44.5 102.5z " />
<glyph unicode="&#xf8;" horiz-adv-x="1214" d="M74 504q0 231 147.5 382.5t386.5 151.5q96 0 185 -26l73 123h221l-126 -211q87 -72 133.5 -180.5t46.5 -239.5q0 -147 -63.5 -266t-186.5 -190t-285 -71q-99 0 -194 29l-78 -131h-219l131 221q-83 71 -127.5 176t-44.5 232zM313 504q0 -117 58 -199l303 508q-40 8 -64 8 q-137 0 -217 -88.5t-80 -228.5zM532 207q34 -6 74 -6q145 0 220.5 86t78.5 217q0 123 -69 211z" />
<glyph unicode="&#xf9;" horiz-adv-x="1392" d="M33 811v205h379v-535q0 -132 58 -201t189 -69q128 0 205.5 74.5t77.5 187.5v338h-160v205h398v-801h153v-215h-336l-39 127q-80 -77 -158.5 -107t-172.5 -32q-230 0 -341.5 132t-111.5 361v330h-141zM324 1448h292l146 -268v-15h-219z" />
<glyph unicode="&#xfa;" horiz-adv-x="1392" d="M33 811v205h379v-535q0 -132 58 -201t189 -69q128 0 205.5 74.5t77.5 187.5v338h-160v205h398v-801h153v-215h-336l-39 127q-80 -77 -158.5 -107t-172.5 -32q-230 0 -341.5 132t-111.5 361v330h-141zM530 1169v13l148 274h293l-226 -287h-215z" />
<glyph unicode="&#xfb;" horiz-adv-x="1392" d="M33 811v205h379v-535q0 -132 58 -201t189 -69q128 0 205.5 74.5t77.5 187.5v338h-160v205h398v-801h153v-215h-336l-39 127q-80 -77 -158.5 -107t-172.5 -32q-230 0 -341.5 132t-111.5 361v330h-141zM276 1147v20l299 273h179l295 -275v-18h-242l-145 117l-144 -117h-242 z" />
<glyph unicode="&#xfc;" horiz-adv-x="1392" d="M33 811v205h379v-535q0 -132 58 -201t189 -69q128 0 205.5 74.5t77.5 187.5v338h-160v205h398v-801h153v-215h-336l-39 127q-80 -77 -158.5 -107t-172.5 -32q-230 0 -341.5 132t-111.5 361v330h-141zM250 1296q0 67 42 104.5t99 37.5q57 2 100.5 -35.5t43.5 -102.5 t-43 -102t-101 -37q-57 0 -99 35.5t-42 99.5zM754 1296q0 67 42 104.5t99 37.5t100 -38t43 -104q0 -65 -42 -101t-101 -36q-57 0 -99 36t-42 101z" />
<glyph unicode="&#xfd;" horiz-adv-x="1312" d="M23 807v209h391v-535q0 -273 264 -276q119 3 185.5 81.5t66.5 207.5v313h-158v209h397v-1020q0 -86 -15 -158t-40.5 -124t-63 -92.5t-79.5 -66t-92.5 -42t-99.5 -23t-103 -6.5q-453 0 -481 401h231q5 -51 30 -87t62.5 -54t75.5 -25.5t80 -7.5q43 0 78.5 6t72 25 t61.5 49.5t40.5 83t15.5 123.5v133q-70 -81 -143.5 -112t-180.5 -31q-222 0 -332 128.5t-110 364.5v326h-153zM498 1159v12l151 263h303l-225 -275h-229z" />
<glyph unicode="&#xfe;" horiz-adv-x="1310" d="M-14 1217v210h395v-567q49 80 144.5 125t193.5 45q111 -1 204.5 -35.5t163 -99t109 -165.5t39.5 -228q0 -253 -142 -391t-370 -138q-95 0 -189.5 42.5t-148.5 129.5v-352h156v-215h-525v215h127v1424h-157zM403 500q0 -123 86 -210t209 -87q128 0 213.5 79.5t85.5 219.5 q0 136 -85.5 215.5t-213.5 79.5q-123 0 -209 -86.5t-86 -210.5z" />
<glyph unicode="&#xff;" horiz-adv-x="1312" d="M23 807v209h391v-535q0 -273 264 -276q119 3 185.5 81.5t66.5 207.5v313h-158v209h397v-1020q0 -86 -15 -158t-40.5 -124t-63 -92.5t-79.5 -66t-92.5 -42t-99.5 -23t-103 -6.5q-453 0 -481 401h231q5 -51 30 -87t62.5 -54t75.5 -25.5t80 -7.5q43 0 78.5 6t72 25 t61.5 49.5t40.5 83t15.5 123.5v133q-70 -81 -143.5 -112t-180.5 -31q-222 0 -332 128.5t-110 364.5v326h-153zM219 1298q0 68 43 107t103 39t103.5 -39t43.5 -107t-43.5 -105.5t-103.5 -37.5t-103 37.5t-43 105.5zM748 1298q0 68 43.5 107t103.5 39q58 0 101.5 -39 t43.5 -107t-42.5 -105.5t-102.5 -37.5t-103.5 37.5t-43.5 105.5z" />
<glyph unicode="&#x152;" horiz-adv-x="2138" d="M90 721q0 159 46.5 292.5t135.5 233t230 155.5t319 56q23 0 55 -2.5t61.5 -6t55 -7t41.5 -6t17 -2.5h962v-445h-219l-14 217h-498v-368h471v-226h-471v-372h524l11 215h223v-455h-987l-107 -20q-82 -13 -125 -13q-182 0 -322 53.5t-229 153t-134.5 237.5t-45.5 310z M346 717q1 -112 31.5 -208t89 -169.5t151.5 -115.5t211 -42q141 0 220 35v995q-76 35 -228 35q-116 0 -207.5 -41t-149 -113.5t-87.5 -168t-31 -207.5z" />
<glyph unicode="&#x153;" horiz-adv-x="1947" d="M74 508q0 146 63 266t183 192t274 72q130 0 231.5 -53t163.5 -151q57 94 159 150t232 56q264 0 394.5 -158.5t101.5 -463.5h-776q13 -95 91.5 -159t207.5 -64q75 0 150.5 25.5t117.5 70.5l154 -148q-77 -82 -191.5 -125t-236.5 -43q-138 0 -244.5 57t-165.5 154 q-142 -204 -387 -204q-163 0 -283 71t-179.5 189t-59.5 266zM315 500q0 -135 74.5 -219t208.5 -84q135 0 209 87t74 216q0 128 -78.5 219.5t-204.5 91.5q-88 0 -154 -48t-97.5 -117.5t-31.5 -145.5zM1096 614l555 -6q-4 103 -78.5 161t-186.5 58q-104 0 -183.5 -56 t-106.5 -157z" />
<glyph unicode="&#x178;" horiz-adv-x="1462" d="M41 1202v232h590v-232h-152l254 -403l256 403h-147v232h588v-232h-136l-436 -641v-334h172v-227h-602v227h172v334l-426 641h-133zM317 1675q0 68 46.5 107t109.5 41q59 0 105.5 -39t46.5 -107q0 -69 -45.5 -107t-106.5 -38q-63 -2 -109.5 36t-46.5 107zM821 1675 q0 68 46.5 107t109.5 41q59 0 106 -39t47 -107q0 -69 -46 -107t-107 -38q-63 -2 -109.5 36t-46.5 107z" />
<glyph unicode="&#x2c6;" horiz-adv-x="870" d="M23 1137v22l303 277h182l299 -279v-20h-246l-147 120l-146 -120h-245z" />
<glyph unicode="&#x2dc;" horiz-adv-x="802" d="M49 1376q24 100 105 151t172 29q21 -5 70.5 -29.5t66.5 -29.5q36 -9 60.5 1.5t43.5 57.5l156 -67q-12 -51 -35 -90t-50.5 -60.5t-60 -34t-63 -11.5t-59.5 7q-13 3 -31 10t-31 13.5t-33.5 17t-27.5 13.5q-39 19 -75 0t-50 -60z" />
<glyph unicode="&#x2000;" horiz-adv-x="946" />
<glyph unicode="&#x2001;" horiz-adv-x="1892" />
<glyph unicode="&#x2002;" horiz-adv-x="946" />
<glyph unicode="&#x2003;" horiz-adv-x="1892" />
<glyph unicode="&#x2004;" horiz-adv-x="630" />
<glyph unicode="&#x2005;" horiz-adv-x="473" />
<glyph unicode="&#x2006;" horiz-adv-x="315" />
<glyph unicode="&#x2007;" horiz-adv-x="315" />
<glyph unicode="&#x2008;" horiz-adv-x="236" />
<glyph unicode="&#x2009;" horiz-adv-x="378" />
<glyph unicode="&#x200a;" horiz-adv-x="105" />
<glyph unicode="&#x2010;" horiz-adv-x="1001" d="M125 473v225h752v-225h-752z" />
<glyph unicode="&#x2011;" horiz-adv-x="1001" d="M125 473v225h752v-225h-752z" />
<glyph unicode="&#x2012;" horiz-adv-x="1001" d="M125 473v225h752v-225h-752z" />
<glyph unicode="&#x2013;" horiz-adv-x="1216" d="M127 467v221h963v-221h-963z" />
<glyph unicode="&#x2014;" horiz-adv-x="1415" d="M127 467v221h1161v-221h-1161z" />
<glyph unicode="&#x2018;" horiz-adv-x="520" d="M88 985l160 451h188l-96 -451h-252z" />
<glyph unicode="&#x2019;" horiz-adv-x="516" d="M100 973l101 463h254l-162 -463h-193z" />
<glyph unicode="&#x201a;" horiz-adv-x="524" d="M57 -250l97 451h252l-156 -451h-193z" />
<glyph unicode="&#x201c;" horiz-adv-x="872" d="M82 969l164 456h190l-100 -456h-254zM432 969l164 456h195l-105 -456h-254z" />
<glyph unicode="&#x201d;" horiz-adv-x="864" d="M100 989l101 447h252l-160 -447h-193zM453 989l98 447h252l-160 -447h-190z" />
<glyph unicode="&#x201e;" horiz-adv-x="884" d="M55 -250l101 451h252l-156 -451h-197zM416 -250l96 451h254l-156 -451h-194z" />
<glyph unicode="&#x2022;" horiz-adv-x="811" d="M147 666q0 113 74 183.5t189 70.5q109 0 182.5 -71t73.5 -183q0 -113 -75 -184.5t-185 -71.5q-112 0 -185.5 70.5t-73.5 185.5z" />
<glyph unicode="&#x2026;" horiz-adv-x="1320" d="M104 119q0 68 44 106.5t104 36.5q59 0 103 -39t44 -108q0 -67 -44.5 -105.5t-102.5 -38.5q-60 0 -104 39.5t-44 108.5zM518 119q0 68 43.5 106.5t102.5 36.5q60 0 103.5 -39t43.5 -108q0 -67 -44.5 -105.5t-102.5 -38.5q-60 0 -103 39t-43 109zM924 119q0 68 43.5 106.5 t103.5 36.5q59 0 103.5 -39t44.5 -108q0 -67 -45 -105.5t-103 -38.5q-60 0 -103.5 39t-43.5 109z" />
<glyph unicode="&#x202f;" horiz-adv-x="378" />
<glyph unicode="&#x2039;" horiz-adv-x="684" d="M68 608l282 453h256l-284 -453l284 -454h-256z" />
<glyph unicode="&#x203a;" horiz-adv-x="684" d="M78 158l284 454l-284 453h256l282 -453l-282 -454h-256z" />
<glyph unicode="&#x205f;" horiz-adv-x="473" />
<glyph unicode="&#x20ac;" d="M178 762v196h129q54 233 228.5 365.5t461.5 132.5q114 0 242 -41l-80 -223q-73 22 -153 22q-168 0 -271 -60.5t-155 -195.5h467l-48 -196h-471q-2 -10 -2 -55v-33h432l-38 -195h-345q41 -137 149 -201.5t286 -64.5q103 0 188 35l72 -252q-125 -39 -262 -39 q-304 0 -473 130t-228 382h-127v195h99l-3 34v4q0 39 3 60h-101z" />
<glyph unicode="&#x2122;" horiz-adv-x="1654" d="M119 1272v162h592v-162h-199v-432h-195v432h-198zM766 840v598h205l166 -205l166 205h204v-598h-198l10 342l-166 -213h-39l-160 217l11 -346h-199z" />
<glyph unicode="&#xe000;" horiz-adv-x="1013" d="M0 0v1014h1014v-1014h-1014z" />
<glyph unicode="&#xfb01;" horiz-adv-x="1363" d="M59 811v201h193v45q0 92 28.5 168t80 125.5t119 76.5t150 25t169.5 -33l-47 -207q-103 52 -184 5t-81 -160v-45h676v-801h135v-211h-522v211h146v600h-435v-602h152v-209h-541v209h154v602h-193zM899 1303q0 65 42.5 104t100.5 39q60 0 102 -40t42 -108q0 -65 -42 -104 t-100 -39q-60 2 -102.5 42t-42.5 106z" />
<glyph unicode="&#xfb02;" horiz-adv-x="1372" d="M61 797v194h191v62q0 103 31.5 180t81.5 124.5t126.5 75.5t152.5 38t174 7.5t176 -11.5t173 -25v-1229h140v-213h-523v213h146v1042q-61 15 -119 20.5t-118 -2t-104.5 -30.5t-73 -71.5t-28.5 -118.5v-62h252v-194h-252v-590h156v-207h-543v207h152v590h-191z" />
</font>
</defs>
</svg>
